<svg xmlns="http://www.w3.org/2000/svg" width="1952.453" height="543.865" viewBox="0 0 1952.453 543.865">
  <g id="Header_Horizon" data-name="Header Horizon" transform="translate(0)">
    <path id="Path_10479" data-name="Path 10479" d="M9754.893,1511.056c29.467-3.271,28.631,3.82,58.373,3.82,9.412,0,29.041-12.946,40.186-18.518,3.717-1.858,1.24,0,7.438-3.718,7.721-4.632,24.314-13.8,33.925-12.6,17.288,2.16,16.729,4.747,30.367,9.3,3.721,1.24,3.1-3.719,9.3.62s3.1,8.058,10.535,8.058,9.3-1.86,13.636-.619,3.1,4.338,9.3,4.338,6.816,2.479,12.395,3.1,3.719.619,11.157.619,11.775-.619,17.354.62,6.2,0,12.395,0,7.438-1.239,13.017.619,6.2-1.859,13.633,1.239l.1.039c3.927-.8,8.389-1.727,13.313-2.781,19.748-4.229,22.217-13.091,44.435-13.9,45.722-1.666,52.168-31.727,64.184-32.166,12.344-.448,17.281-18.174,34.562-8.276s44.436,12.418,44.436,12.418,22.218.945,37.029.405,32.093-2.924,46.9.046,14.811,2.969,32.094,5.849,22.216,13.227,51.839,15.658,32.092-6.434,56.779-5.578,37.03,12.686,54.31,12.057,19.749-9.491,44.435-3.373c17.2,4.261,28.4,1.083,39.46-.267v251.129l-59.209,9.531-735.65,30.308s-150.588-22.588-150.588-36.624c0-11.969-39.483-105.415-49.584-136-56.389,1.664-106.462,2.846-142.317,3.142v-1.563l-815.1,131.209V1488.06a50.542,50.542,0,0,1,14.855.044c17.28,2.88,26.583-9.226,47.969-8.349s16.216,9.521,48.309,13.615,39.871,22.017,84.3,20.4c33.722-1.227,60.992,8.843,81.919,5.747,15.835-2.341,23.125-15.593,56.178-17.184,18.386-.884,79.061-19.589,90.255-19.115,23.221.985,45.762.9,105.963-5.115,35.322-3.527,49.036,20.966,82.513,21.575,32.09.584,29.624-9.852,59.247-7.423s29.624,2.431,59.248,8.37,39.5,7.333,56.777,13.722c33,12.2,58.52,33.479,94.883,31.695,25.389-1.246,60.492-12.893,86.528-10.5,22.874,2.108,39.121,6.406,61.766,2.1C9715.2,1532.854,9736.3,1513.117,9754.893,1511.056Z" transform="translate(-8659.317 -1447.844)" fill="#a4dadd" fill-rule="evenodd"/>
    <path id="Path_10480" data-name="Path 10480" d="M10611.77,2025.792H8659.317V1612.7c41.69-14.678,38.266-3.056,101.935,11.415,68.632,15.6,70.586-49.315,139.631-31s81.523-28.641,118-24.5,43.949,22.777,69.868,20.758,18.166-19.372,53.161-26.441,40.6-19.633,71.325-19,60.408,22.14,60.408,22.14,26.806,35.305,60.5,29.247,25.92-17.166,66.1-12.116,81.962,50.076,115.657,47.049c31.634-2.842,53.174-22.228,83.393-18.55,18.1,2.2,34.361,4.656,48.977,7.41,1.325,0,2.625-.029,3.983-.006,141.527,2.576,199.927-82.33,235.877-72.145,28.512,8.078,41.474-24.834,73.875-32.912s41.473,31.9,72.575,36.952,23.617,7.3,35.405,13.8,35.587,31.411,70.743,39.03,72.563-15.484,109.671-15.162,69.929,31.746,141.242,31.158,73.987-43.544,113.32-38.337,76.465,42.672,96.18,35.122c3.854-1.475,7.371-2.776,10.623-3.92Z" transform="translate(-8659.317 -1481.928)" fill="#8bc4ce" fill-rule="evenodd"/>
    <path id="Path_10482" data-name="Path 10482" d="M10611.771,2143.174H8659.319V1752.407c2.046-.137,4.174-.214,6.4-.214,22.137,0,30.1-5.313,51.354,1.771s10.623,5.311,39.842,11.51,27.444,6.2,59.321,10.622,30.1,6.2,55.779.886,22.135-11.508,42.5-10.625,26.563,0,38.957,3.541,7.087,3.544,26.563,5.315,11.507,8.853,37.18,1.769,15.941-8.854,38.962-13.279,23.907-7.972,44.269-15.939,13.278-13.283,26.561-8.852,18.594-.885,34.529,9.739,21.25,12.393,38.961,21.247,34.525,8.857,52.236,18.6-7.085,13.28,34.529,18.59,30.986,0,52.235,6.2,47.812,7.085,59.322,10.626,15.051,3.541,40.726,12.394,45.156,14.168,56.665,16.823,15.935-2.655,27.451.888,10.622,0,25.673,6.2,19.478,5.315,30.988,11.511,17.708,6.2,25.679,12.4,27.444,10.621,38.069,15.935,30.988,9.738,38.067,11.509,15.053-.884,29.225,7.967c6.545,4.091,10.632,6.86,14.271,9.178,14.384-6.027,28.783-12.4,43.165-14.2,14.409-1.811,40.374,5.353,51.7.849s29.272-10.89,38.535-15.5,28.324.262,41.711-4.137,20.049-13.054,32.4-20.044,18.532-8.373,30.883-15.364,36.026-3.156,50.437-9.2,21.617-11.7,32.939-17.051,25.7-16.047,47.021-18.477,71.4,10.56,95.212,8.581,21.43-9.771,39.96-17.3,24.7-8.061,44.262-14.689,28.817-4.471,52.494-11.737,19.56-4.932,37.057-12.51,31.913-6.848,49.41-13.585,22.639-5.627,40.14-8.976,32.943,3.355,49.41,5.031,30.884,6.63,58.676,8.881c18.806,1.519,30.88-5.541,50.737-6.872Z" transform="translate(-8659.318 -1599.31)" fill="#6fb67b" fill-rule="evenodd"/>
  </g>
</svg>
