<?xml version="1.0" encoding="utf-8"?>
<!-- Generator: Adobe Illustrator 24.0.0, SVG Export Plug-In . SVG Version: 6.00 Build 0)  -->
<svg version="1.1" id="Ñëîé_1" xmlns="http://www.w3.org/2000/svg" xmlns:xlink="http://www.w3.org/1999/xlink" x="0px" y="0px"
	 viewBox="0 0 478.13 541.61" style="enable-background:new 0 0 478.13 541.61;" xml:space="preserve">
<style type="text/css">
	.st0{fill:#98AF3E;}
	.st1{fill:#6B7F18;}
	.st2{fill:#556B41;}
</style>
<g>
	<polygon class="st0" points="430.01,406.62 307.85,415.45 277.25,445.51 297.91,456.56 	"/>
	<polygon class="st1" points="430.01,406.62 340.96,494.87 297.91,456.56 	"/>
	<polygon class="st0" points="430.01,406.62 321.2,499.04 284.28,488.16 298.75,460.64 	"/>
	<g>
		<path class="st2" d="M259.72,473.57c-19.69,6.74-40.19,12.19-61.11,12.69c-18.77,0.45-37.66-3.32-53.47-13.8
			c-13.52-8.95-24.83-22.27-29.38-38.02c-2.26-7.81-2.75-16.14-1.1-24.12c1.79-8.65,6.2-17.29,13.72-22.3
			c7.12-4.74,17.05-6.03,24.57-1.45c6.38,3.89,9.49,11.42,9.47,18.69c-0.03,8-3.87,15.16-10.13,20.05
			c-6.61,5.16-15.21,7.56-23.53,7.41c-9.94-0.18-19.53-3.78-28.12-8.58c-7.93-4.43-15.31-9.89-22.05-15.97
			c-13.03-11.76-23.68-26.1-31.22-41.95c-7.92-16.64-12.18-34.87-12.5-53.29c-0.34-19.23,3.48-38.58,11.26-56.18
			c1.86-4.22,3.96-8.33,6.25-12.33c0.54-0.93-0.9-1.77-1.44-0.84c-9.92,17.26-15.81,36.71-17.36,56.55
			c-1.51,19.37,1.21,39.01,8.16,57.17c6.5,17,16.47,32.63,29.11,45.72c6.29,6.52,13.26,12.4,20.75,17.49
			c8.4,5.7,17.63,10.59,27.62,12.74c8.8,1.9,17.99,1.46,26.33-2.09c7.5-3.2,14.11-9.03,16.95-16.82c2.55-7.02,2.07-15.33-1.66-21.86
			c-4.1-7.2-11.98-10.92-20.15-10.36c-9,0.62-16.77,5.77-21.71,13.18c-4.95,7.43-7.09,16.59-6.97,25.45
			c0.23,16.76,8.75,32.33,20.61,43.79c6.2,5.99,13.38,11,21.14,14.74c8.63,4.17,17.95,6.59,27.45,7.79
			c21.42,2.71,43.17-1.11,63.74-7.07c5.11-1.48,10.18-3.11,15.21-4.83C261.17,474.83,260.74,473.22,259.72,473.57L259.72,473.57z"/>
	</g>
</g>
<g>
	<polygon class="st0" points="416.15,284.33 320.15,203.75 276.26,204.02 283.55,226.85 	"/>
	<polygon class="st1" points="416.15,284.33 287.86,285.67 283.55,226.85 	"/>
	<polygon class="st0" points="416.15,284.33 270.38,274.65 251.02,240.34 281.26,230.45 	"/>
	<g>
		<path class="st2" d="M245.8,216.92c-14.92-5.6-29.21-12.86-42.59-21.51c-13.39-8.66-25.85-18.72-37.22-29.89
			c-11.36-11.18-21.62-23.48-30.56-36.68c-8.91-13.15-16.53-27.17-22.63-41.83c-6.12-14.7-10.72-30.05-13.59-45.73
			c-0.36-1.95-0.69-3.91-0.99-5.87c-0.17-1.11,1.56-1.34,1.73-0.23c2.43,15.67,6.59,31.04,12.31,45.82
			c5.7,14.72,12.92,28.85,21.47,42.11c8.57,13.3,18.45,25.75,29.45,37.11c10.98,11.34,23.1,21.59,36.13,30.5
			c13.03,8.91,26.97,16.47,41.59,22.41c1.84,0.75,3.69,1.47,5.55,2.17C247.5,215.69,246.85,217.31,245.8,216.92L245.8,216.92z"/>
	</g>
</g>
</svg>
