<svg xmlns="http://www.w3.org/2000/svg" width="1457.485" height="312.19" viewBox="0 0 1457.485 312.19">
  <g id="Birds" transform="translate(-906.466 -118.766)">
    <g id="Group_227" data-name="Group 227" transform="translate(1905.659 118.766)">
      <path id="Path_10487" data-name="Path 10487" d="M-1217.109,6094.7a.874.874,0,0,1-.169-.3c-.023-.052-.046-.1-.071-.155-.1-.2-.207-.4-.306-.609a5.916,5.916,0,0,1-.323-.744h0c-.032-.1-.062-.2-.094-.294l.009.029c-.034-.114-.061-.23-.089-.346s-.06-.26-.083-.391l0,.013a.06.06,0,0,1,0-.013h0s0,0,0-.006v0s0,0,0-.006,0-.013,0-.019a.215.215,0,0,0,0-.022h0c-.012-.068-.024-.135-.036-.2v0c-.028-.157-.053-.316-.078-.475-.022-.134-.042-.271-.054-.407-.015-.173-.032-.346-.038-.519,0-.087-.009-.174-.008-.261a3.423,3.423,0,0,1,.067-.653,5.585,5.585,0,0,1,.458-1.242c.125-.27.258-.536.386-.805s.25-.533.369-.8.248-.567.382-.845c.068-.143.138-.285.218-.421s.175-.293.267-.437a5.567,5.567,0,0,1,.614-.759c.134-.144.286-.271.433-.4a5.306,5.306,0,0,1,.44-.342c.161-.114.327-.221.494-.328.082-.053.171-.1.256-.143s.181-.086.271-.127a4.36,4.36,0,0,1,.757-.242c.073-.018.149-.025.223-.038a1.46,1.46,0,0,1,.221-.019,3.311,3.311,0,0,1,.417.01,3.759,3.759,0,0,1,.758.154l.394.126c.111.034.224.06.336.085.28.053.562.092.842.139.3.05.592.1.888.153s.616.1.921.158.591.141.882.225c.481.139.963.263,1.432.439a14.74,14.74,0,0,1,1.389.608l-.013-.006.149.075-.012-.007c.07.035.141.07.211.1a3.531,3.531,0,0,1,.8-.18,2.547,2.547,0,0,1,.559-.007c.17.018.338.05.505.083a4.9,4.9,0,0,1,.535.13,5.73,5.73,0,0,1,.6.229,4.061,4.061,0,0,1,.535.308,2.633,2.633,0,0,1,.243.181l.187.042c.173.035.349.063.524.082a6.638,6.638,0,0,0,.676,0c.46-.039.918-.116,1.373-.188.195-.038.386-.084.576-.14.09-.03.178-.06.266-.094s.186-.077.277-.119l.2-.106c.057-.03.109-.065.163-.1.537-.371,1.057-.765,1.592-1.135a6.3,6.3,0,0,1,.873-.519c.3-.142.612-.264.924-.383s.614-.233.924-.343q.234-.083.474-.15a4.7,4.7,0,0,1,.535-.132l.26-.042c.081-.014.164-.018.245-.024a4.182,4.182,0,0,1,.469-.014,8.363,8.363,0,0,1,1.036.088,7.667,7.667,0,0,1,.977.2c.181.053.359.107.537.171.065.023.129.045.191.073.1.042.2.081.293.131.146.078.29.154.431.24s.3.194.445.294c.271.185.532.387.79.588.532.414,1.049.847,1.578,1.264s1.057.8,1.586,1.205,1.049.815,1.57,1.229q.758.6,1.513,1.2c.5.4,1.028.771,1.536,1.163.266.2.53.412.8.618.24.186.484.362.729.54a.149.149,0,0,1,.02.013h0l0,0,.008.006-.005,0,.054.037-.005,0,.184.125-.006,0c.015.009.031.02.045.03h0l.01.007q.567.35,1.147.678c.407.229.819.451,1.208.711l-.007,0c.162.109.324.219.478.337a1.444,1.444,0,0,1,.368.376.516.516,0,0,1,.083.26h0v0a.01.01,0,0,0,0,0,.057.057,0,0,1-.058.063.048.048,0,0,1-.046-.034.168.168,0,0,1,0-.05.235.235,0,0,0-.006-.043s0,.005,0,.007-.005-.021-.009-.033l0,.007a.841.841,0,0,0-.034-.085l0,.007-.023-.04a1.207,1.207,0,0,0-.093-.12l.005.005c-.048-.052-.1-.1-.15-.147h0c-.1-.083-.2-.156-.3-.232h0l-.049-.032h0l-.111-.075.006,0a8.915,8.915,0,0,0-.864-.489c-.276-.145-.554-.284-.829-.429-.291-.155-.585-.308-.865-.48s-.581-.372-.865-.569-.583-.42-.876-.626c-.332-.236-.667-.467-1-.7q-.18-.121-.359-.246l.02.013c-.257-.172-.5-.358-.754-.542-.265-.2-.53-.393-.8-.586-.533-.389-1.061-.782-1.6-1.164-.287-.2-.573-.406-.862-.605-.248-.17-.5-.337-.743-.509a1.322,1.322,0,0,1-.207.143,2.107,2.107,0,0,1-.484.2,2.342,2.342,0,0,1-1.022-.006c-.53-.1-1.057-.194-1.592-.247-.271-.017-.54-.021-.811-.012-.114.01-.227.018-.341.031s-.234.032-.35.05-.219.05-.328.081-.213.077-.317.123c-.2.1-.389.2-.579.319s-.383.239-.575.358-.4.246-.6.361c-.23.13-.464.25-.7.363h0l0,0-.054.025.01-.005-.017.008a5.008,5.008,0,0,1-1.057.341l-.021,0c.072.04.143.078.217.115.125.058.251.112.379.163l.178.061c.352.117.716.189,1.073.289a1,1,0,0,1,.539.314.672.672,0,0,1,.113.592.953.953,0,0,1-.453.53,2.588,2.588,0,0,1-.5.26,3.465,3.465,0,0,1-1.08.238l-.169,0c-.15,0-.3-.007-.452-.021-.192-.02-.382-.049-.573-.08-.39-.062-.78-.128-1.163-.228-.367-.1-.716-.251-1.071-.381q-.241-.078-.484-.145l0,0a9.054,9.054,0,0,1-.892.708,3.092,3.092,0,0,1-1.092.486,5.663,5.663,0,0,1-1.163.137h-.062c-.228,0-.457-.02-.684-.026-.259-.008-.52-.015-.78-.028a6.69,6.69,0,0,1-.8-.091,2.717,2.717,0,0,1-1.026-.412l0,0-.005,0-.022-.015.013.009c-.228-.157-.441-.328-.659-.5s-.456-.35-.68-.529c-.427-.341-.8-.74-1.208-1.106l0,0c-.1-.085-.2-.167-.31-.243s-.222-.133-.338-.194c-.085-.038-.171-.073-.259-.1-.25-.082-.5-.163-.756-.233l-.1.014-.13.017a.569.569,0,0,1-.092.01,5.465,5.465,0,0,1-.662.036c-.14,0-.28-.011-.42-.024-.061-.005-.121-.016-.181-.027a.941.941,0,0,1-.228-.06.428.428,0,0,1-.094-.055.424.424,0,0,1-.039-.631.883.883,0,0,1,.389-.195c.131-.036.267-.058.4-.081.228-.041.458-.069.687-.105.072-.018.147-.027.218-.039.109-.021.219-.048.326-.08.074-.025.147-.054.219-.085.025-.013.05-.026.073-.041l-.095-.009c-.236-.019-.475-.041-.711-.061l-.254-.02.057.005c-.179-.01-.359-.025-.538-.025s-.377,0-.566.01l.058,0c-.116.006-.231.014-.347.019l.058,0c-.432.025-.864.038-1.3.054-.155.009-.307.021-.458.042-.052.011-.1.022-.153.037-.11.041-.216.084-.323.131a15.691,15.691,0,0,0-1.47.8c-.141.095-.276.2-.409.3l-.077.066h0l0,0-.011.01c-.01.008-.018.017-.028.025l0,0-.021.018a4.152,4.152,0,0,0-.322.311l-.168.191c-.059.077-.12.151-.179.228s-.108.151-.161.226c-.315.48-.638.957-.963,1.43-.2.31-.4.614-.566.938l-.178.355v0a.049.049,0,0,1,0,.009h0a.062.062,0,0,0-.005.011l0,0c-.109.239-.208.481-.3.726-.061.189-.119.38-.174.572s-.107.407-.16.609-.1.4-.157.6l-.079.3a2.754,2.754,0,0,1-.122.417.489.489,0,0,1-.327.281.477.477,0,0,1-.114.015A.494.494,0,0,1-1217.109,6094.7Zm0-2.294h0Zm-.028-.092-.006-.02,0,.016Zm0-.008,0-.014,0,.013Zm1.794-.947c0,.007-.006.012-.009.018a.112.112,0,0,0,.011-.024Zm0-.009a.045.045,0,0,0,.007-.012A.094.094,0,0,1-1215.344,6091.354Zm-2.137-1.084v0h0l0-.012C-1217.482,6090.258-1217.482,6090.264-1217.482,6090.269Zm17.4-.227h0Zm.025,0h.021l.019,0Zm2.027-.2.009,0h0l.01,0h0Zm6-.4.025,0h0Zm-5.261-.008.042-.032h0C-1197.271,6089.413-1197.284,6089.423-1197.3,6089.434Zm-2-.4c.052.005.1.012.155.02-.052-.008-.1-.016-.156-.021Zm3.979-.007h0c0-.009.007-.019.009-.028Zm-10.557-1.632h0c.033-.015.065-.03.1-.046C-1205.814,6087.367-1205.846,6087.382-1205.879,6087.4Zm6.8-.435.009-.006,0,0a.007.007,0,0,0,0,0Zm-.156-.281-.008-.007Zm.232-.054v0l.038,0Zm-3.107-1.312-.027,0Zm17.934-.02.014,0h0Zm-24.291-.043h0Zm4.1-.452.105-.051h0Zm18.456-.777.009.008.13.09-.137-.1.007,0-.009-.006Z" transform="translate(1218.457 -5938.753)" fill="#040506"/>
      <g id="Group_226" data-name="Group 226" transform="translate(293.151 0)">
        <path id="Path_10488" data-name="Path 10488" d="M-164.294,6258.7a.584.584,0,0,1-.257-.369.613.613,0,0,1,.077-.427c.1-.187.2-.373.311-.555a6.6,6.6,0,0,1,.386-.578,9.987,9.987,0,0,1,.788-.926l-.009.009.184-.193-.024.025.051-.054.008-.008,0,0c.266-.281.54-.555.814-.83.259-.259.532-.5.794-.757.067-.065.138-.125.207-.186s.137-.129.209-.189c.147-.123.288-.255.435-.378.307-.252.611-.507.929-.746q.95-.714,1.943-1.366a21.409,21.409,0,0,1,2.031-1.148c.686-.35,1.377-.691,2.068-1.03.353-.172.716-.33,1.081-.474s.728-.267,1.1-.38c.14-.043.282-.081.423-.119l-.023.007c.416-.117.839-.211,1.261-.31q.6-.139,1.2-.293l.021-.006-.008,0h0l-.009,0-.034.009.029-.008-.01,0,.02-.006.055-.015-.009,0,.149-.042-.074.021.238-.067-.074.022.138-.039.016,0-.009,0,.026-.007-.017,0h0l.039-.011h-.005a17.06,17.06,0,0,0,1.723-.606c.238-.105.476-.208.712-.318s.469-.223.7-.341q.7-.358,1.382-.758c.133-.082.266-.165.4-.243.155-.1.311-.193.467-.287s.338-.21.51-.312l-.022.012q.2-.125.41-.248l.1-.062h0l0,0,.051-.031-.027.016.306-.184-.007,0,.058-.035-.031.018c.637-.382,1.272-.771,1.89-1.182s1.244-.836,1.836-1.294c.2-.17.406-.338.6-.519s.385-.376.574-.567c.086-.092.175-.184.262-.277s.179-.2.27-.3c.173-.189.326-.4.483-.6.176-.245.341-.494.5-.752.077-.127.151-.257.228-.384.053-.089.106-.181.166-.266a.051.051,0,0,1,.021-.05.065.065,0,0,1,.066-.009.062.062,0,0,1,.026.083,1.191,1.191,0,0,1-.08.183l-.12.264c-.074.165-.146.335-.232.494h0l0,0,0,.009v0a9.578,9.578,0,0,1-.77,1.271l0,0-.04.055,0-.006-.087.12,0,0-.113.156.016-.022c-.169.233-.347.464-.533.685-.2.236-.4.473-.613.694a15.768,15.768,0,0,1-1.529,1.347l.041-.033-.08.064.041-.033c-.293.236-.6.459-.9.683-.149.11-.3.214-.456.321s-.314.221-.475.326c-.316.206-.626.422-.941.632s-.635.424-.953.637c-.595.4-1.194.794-1.821,1.145a20.754,20.754,0,0,1-1.929.976l.01,0-.37.16.069-.03a16.221,16.221,0,0,1-2.161.735c-.718.2-1.444.37-2.165.562-.278.082-.554.168-.83.256s-.554.208-.827.32c-.674.3-1.328.636-1.985.97q-.552.279-1.1.565c-.309.161-.619.324-.918.5l-.27.16a30.081,30.081,0,0,0-2.752,1.949c-.238.2-.477.4-.713.6q-.328.285-.644.582-.67.63-1.309,1.291c-.1.105-.2.21-.3.315l.007-.007c-.411.438-.8.9-1.169,1.377l-.2.281,0-.006-.041.056,0,.006h0c-.028.039-.056.078-.084.118a.6.6,0,0,1-.369.256.56.56,0,0,1-.117.012A.583.583,0,0,1-164.294,6258.7Z" transform="translate(275.895 -6237.715)" fill="#040506"/>
        <path id="Path_10489" data-name="Path 10489" d="M-142.243,6286.454a.615.615,0,0,1,.088-.8,5.045,5.045,0,0,1,.432-.332c.125-.09.247-.185.373-.277l.192-.151c.284-.231.564-.468.835-.713.3-.269.587-.548.888-.813.324-.285.644-.571.975-.85.309-.26.629-.512.959-.746.662-.47,1.339-.917,2-1.384.685-.482,1.366-.971,2.036-1.474.253-.19.5-.389.75-.58l.053-.042.075-.06-.022.018.078-.062-.056.045.067-.054-.012.01.021-.017.015-.012-.009.007.017-.014.012-.009-.008.006.043-.034c.607-.491,1.2-1,1.783-1.519s1.2-1.027,1.816-1.514l-.04.032c.12-.1.245-.191.368-.286l-.038.031c.34-.272.693-.533,1.046-.79.183-.132.364-.268.547-.4s.356-.272.532-.41c.115-.1.229-.193.34-.3s.213-.206.318-.312c.135-.149.266-.3.4-.457a.862.862,0,0,1,.322-.267,1.388,1.388,0,0,1,.183-.053.118.118,0,0,1,.049.231l-.087.02-.029.01-.042.022-.028.021c-.018.016-.035.033-.052.05l.012-.012c-.071.078-.133.163-.2.247l0,0-.033.045.008-.01-.063.086,0-.006-.037.051,0,0a11.637,11.637,0,0,1-1.6,1.724c-.6.553-1.2,1.1-1.786,1.668s-1.173,1.148-1.758,1.723-1.225,1.142-1.863,1.685q-.192.163-.389.32l.059-.046-.358.287.059-.048q-.939.754-1.916,1.458-.524.377-1.052.751c-.317.225-.641.444-.947.682l-.35.272c-.549.451-1.076.923-1.592,1.41s-1.027.967-1.577,1.407l.067-.053-.222.178a4.065,4.065,0,0,1-.965.635.493.493,0,0,1-.2.039A.637.637,0,0,1-142.243,6286.454Z" transform="translate(258.537 -6264.414)" fill="#040506"/>
        <path id="Path_10490" data-name="Path 10490" d="M-176.59,6334.648c-.341-.042-.68-.092-1.019-.154-.16-.03-.323-.065-.479-.11s-.3-.081-.44-.132c-.179-.063-.356-.13-.532-.205-.16-.069-.312-.149-.467-.229a6.317,6.317,0,0,1-.795-.512l.01.007-.046-.034-.023-.017.011.008-.174-.126-.059-.043.019.013-.036-.025-.033-.025.021.016c-.207-.15-.415-.3-.625-.445s-.445-.3-.662-.456c-.26-.184-.515-.373-.761-.574-.113-.094-.22-.2-.325-.3a2.3,2.3,0,0,1-.317-.365.64.64,0,0,1,.091-.826.635.635,0,0,1,.833-.021c.16.149.324.3.488.444s.312.254.472.376c.536.377,1.079.745,1.608,1.131l-.011-.007.278.2-.009-.006.013.009-.009-.006.014.009.055.041-.036-.027c.194.139.395.263.6.389l.275.143c.1.052.208.091.312.134l.3.107c.106.038.218.064.327.095.224.052.448.1.673.139s.436.064.655.09c.159.016.317.032.477.043s.312.016.469.02l.263-.008c.1,0,.2-.019.3-.029.2-.034.4-.073.6-.117s.405-.1.607-.16c.38-.112.76-.226,1.138-.343a11.028,11.028,0,0,1,1.15-.3,12.344,12.344,0,0,1,1.276-.174c.191-.017.385-.019.578-.021.211,0,.422,0,.633,0,.259.007.517.02.776.033l-.421-.286c-.491-.334-.991-.657-1.471-1.007l.036.026-.217-.158.006,0c-.4-.29-.782-.608-1.176-.907-.117-.083-.235-.165-.357-.242-.141-.089-.284-.169-.43-.25a4.052,4.052,0,0,0-.382-.169,4.759,4.759,0,0,0-.5-.157l.029.008a4.408,4.408,0,0,0-.452-.081c-.111-.01-.223-.017-.334-.019a3.362,3.362,0,0,0-.371.027,2.825,2.825,0,0,0-.285.061c-.1.028-.189.062-.283.1a6.411,6.411,0,0,0-.59.3l.014-.008c-.04.026-.08.053-.118.082a.087.087,0,0,1-.123.1.2.2,0,0,1-.026-.019h0c-.162-.115.065-.292.153-.369.153-.134.307-.264.468-.388a2.448,2.448,0,0,1,1.193-.487,3.968,3.968,0,0,1,1.6.159,5.159,5.159,0,0,1,1.13.5c.356.205.691.441,1.029.674.558.383,1.14.728,1.716,1.083s1.154.745,1.751,1.082l.269.136c.078.04.163.072.245.1l.28.093c.074.024.153.041.23.06h0l-.016,0,.022,0c.332-.013.666-.028,1-.02a.8.8,0,0,1,.573.236.658.658,0,0,1,.11.717.7.7,0,0,1-.476.375,1.182,1.182,0,0,1-.321.027,3.7,3.7,0,0,1-.5-.055l-.086-.013c-.2.007-.391.014-.586.018-.408.006-.816.005-1.225-.005-.779-.021-1.556-.078-2.335-.083-.215.005-.429.013-.643.024s-.422.041-.631.068-.389.067-.583.105-.38.093-.568.143c-.371.107-.737.228-1.106.339s-.772.232-1.163.318c-.206.044-.411.083-.618.118a5.532,5.532,0,0,1-.672.053c-.058,0-.117,0-.175,0A8.777,8.777,0,0,1-176.59,6334.648Z" transform="translate(290.642 -6308.618)" fill="#040506"/>
        <path id="Path_10491" data-name="Path 10491" d="M-293.256,6327.512a.588.588,0,0,1-.463-.448c-.1-.463.317-.774.638-1.026a5.389,5.389,0,0,1,.485-.342c.094-.058.187-.124.285-.175s.21-.111.315-.167c.166-.087.341-.166.515-.237.749-.31,1.513-.572,2.285-.816a24.657,24.657,0,0,1,4.014-.851l-.066.011c.789-.116,1.587-.165,2.382-.223.76-.055,1.521-.117,2.283-.147s1.542-.038,2.312-.073q1.211-.057,2.421-.132c.212-.013.425-.026.637-.049.243-.025.484-.055.727-.085.54-.084,1.079-.18,1.617-.276.5-.091,1.014-.175,1.512-.3.048-.016.095-.033.141-.051.095-.047.187-.1.278-.15.065-.042.127-.087.188-.134.121-.1.241-.2.362-.3a1.627,1.627,0,0,1,.292-.212.819.819,0,0,1,.544-.061c.116.024.233.037.35.056a.761.761,0,0,1,.377.173.672.672,0,0,1,.2.7.6.6,0,0,1-.533.417,1.525,1.525,0,0,1-.459-.033c-.166.135-.329.275-.5.4-.09.064-.189.119-.285.173a2.486,2.486,0,0,1-.332.163,6.229,6.229,0,0,1-1.156.273c-.762.14-1.528.27-2.295.381-.79.113-1.584.149-2.38.185-.758.033-1.517.068-2.275.078h-.031l-.333,0h-.092c-.307,0-.613,0-.92.006h-.021c-.775.015-1.547.051-2.321.086s-1.562.07-2.34.141c-.4.038-.807.094-1.21.15-.356.058-.71.122-1.064.188l.06.013c.392.084.777.209,1.159.326s.77.235,1.157.348c.162.048.326.089.489.134.216.052.432.1.65.141s.451.075.677.108l.458.038c.048,0,.1,0,.148,0h.082l.231,0,.462-.016c.169-.006.338-.025.507-.037.33-.023.657-.075.985-.112.332-.053.662-.109.992-.172s.668-.143,1-.218c.656-.149,1.315-.309,1.982-.4l.031,0-.023,0h0l.172-.025-.012,0,.235-.033h-.012l.1-.014-.015,0h0l.04,0,.021,0h-.009c.353-.049.712-.077,1.067-.1q.627-.039,1.257-.064a8.664,8.664,0,0,1,2.311.143,5.88,5.88,0,0,1,1.023.328,1.5,1.5,0,0,1,.739.584.434.434,0,0,1,.054.2.069.069,0,0,1,0,.113.12.12,0,0,1-.108.03.139.139,0,0,1-.061-.05c-.029-.033-.059-.066-.09-.1s-.07-.062-.107-.092l.018.012c-.047-.034-.093-.064-.142-.094a2.04,2.04,0,0,0-.21-.1,3.759,3.759,0,0,0-.371-.114l.029.007c-.223-.054-.45-.091-.678-.125-.18-.019-.359-.036-.54-.044s-.365,0-.548,0h.044c-1.025.051-2.045.19-3.062.326-.748.117-1.49.266-2.224.456-.384.1-.767.2-1.152.3s-.768.192-1.157.263q-.637.118-1.279.2c-.4.05-.8.08-1.2.1-.2.011-.4,0-.6,0-.1,0-.2-.013-.3-.02s-.2-.012-.3-.024c-.2-.025-.394-.047-.59-.08s-.416-.075-.624-.119c-.512-.111-1.016-.256-1.518-.4-.468-.135-.935-.268-1.408-.388h0c-.2-.041-.389-.08-.586-.106a4.8,4.8,0,0,0-.488-.025c-.129.005-.256.016-.384.033s-.273.05-.409.083c-.24.069-.477.142-.712.226-.255.089-.5.2-.754.3-.439.19-.874.393-1.314.583h0l-.006,0-.068.029.013-.005-.146.063.036-.016q-.236.1-.477.191a1.545,1.545,0,0,1-.509.124A.6.6,0,0,1-293.256,6327.512Z" transform="translate(376.841 -6302.996)" fill="#040506"/>
        <path id="Path_10492" data-name="Path 10492" d="M-241.466,6324.909a3.088,3.088,0,0,1-.88-.157,6.02,6.02,0,0,1-1.785-.191,7.577,7.577,0,0,1-2.382-1.158,4.421,4.421,0,0,1-.45-.348c-.079-.074-.16-.146-.235-.227-.052-.055-.1-.113-.148-.171-.175-.062-.35-.125-.524-.189-.09-.032-.178-.068-.266-.1l-.033-.008c-.317-.081-.634-.168-.948-.259-.179-.051-.355-.1-.532-.156l-.07-.021c-.744-.009-1.487-.007-2.23-.024h-.073c-.294.065-.589.126-.885.181-.418.077-.841.122-1.264.172-.439.054-.878.11-1.318.151s-.859.05-1.288.063l-.188.006c-.551.128-1.1.244-1.662.339s-1.136.175-1.7.3l-.184.051a.671.671,0,0,1-.67-.107.684.684,0,0,1-.2-.289l-.136.019.024,0-.092.013h.01l-.022,0-.062.009.018,0-.048.007c-.239.034-.481.063-.722.085-.146.014-.293.032-.44.04a3.079,3.079,0,0,1-.737-.009.653.653,0,0,1-.519-.5l0-.021c-.021-.011-.042-.022-.062-.035l-.465-.01-.209,0a.507.507,0,0,1-.365-.167.467.467,0,0,1,.027-.657.752.752,0,0,1,.1-.085.9.9,0,0,1,.164-.079,1.41,1.41,0,0,1,.377-.08c.123-.016.245-.025.367-.033a.594.594,0,0,1,.1-.048.941.941,0,0,1,.15-.036l.154-.029.315-.056c.2-.036.4-.073.606-.1.469-.072.937-.138,1.409-.193.9-.106,1.8-.17,2.7-.211.153-.008.307-.009.459-.013.114,0,.227,0,.342,0a2.3,2.3,0,0,1,.452.033l.358-.055c.88-.136,1.759-.272,2.633-.443l.878-.171-.082.023a.856.856,0,0,1,.391-.038.692.692,0,0,1,.365.2l.453-.061q.267-.036.535-.065a1.376,1.376,0,0,1,.231-.025q.273-.029.546-.054c.427-.038.855-.05,1.284-.051a.56.56,0,0,1,.029-.257.977.977,0,0,1,.253-.37,2.646,2.646,0,0,1,.38-.294c.144-.1.287-.19.435-.28a11.4,11.4,0,0,1,1.2-.633c.2-.089.4-.178.6-.253.231-.086.461-.166.695-.242a6.962,6.962,0,0,1,1.3-.277c.092-.011.185-.028.278-.033l.428-.024c.086-.005.173,0,.26,0h.118c.078,0,.158,0,.236,0l.493.034c.084.005.168.021.252.034s.17.018.253.035a9.013,9.013,0,0,1,.992.251,5.5,5.5,0,0,1,.888.381c.129.069.265.123.4.189a.547.547,0,0,1,.253.192.169.169,0,0,1-.073.224.169.169,0,0,1-.218-.062l-.009-.009-.035-.023c-.022-.011-.045-.022-.068-.032-.078-.029-.158-.051-.238-.072l.023.005-.024-.006a.609.609,0,0,1,.011.387.608.608,0,0,1-.3.356.835.835,0,0,1-.3.081.681.681,0,0,1-.158.235,1.256,1.256,0,0,1-.482.236c-.116.04-.234.079-.351.118-.132.043-.265.083-.4.123a.835.835,0,0,1,.087.161.656.656,0,0,1-.318.8.958.958,0,0,1-.332.088l.039-.005c-.5.072-1,.126-1.5.177l.018.008c.061.028.122.058.182.088a.735.735,0,0,1,.442.53.684.684,0,0,1-.045.4.627.627,0,0,1-.17.218q.349.1.7.206a.61.61,0,0,1,.136.008c.332.059.667.1,1,.142l-.074-.008.409.047h-.009l.027,0h.012l.018,0,.058.006h-.018l.083.009-.018,0,.056.007.019,0h0l.019,0,.057.006h-.016l.069.008.066.008c.059-.019.119-.036.179-.052l.374-.1c.114-.029.234-.043.35-.064.244-.045.49-.071.737-.1a10.727,10.727,0,0,1,1.284-.05h.18c.143,0,.286,0,.428.007.269.014.539.03.808.044.208.011.416.028.623.046a3.869,3.869,0,0,1,.616-.017l.111.006q.22-.008.44-.01l-.207-.108-.054-.028a.539.539,0,0,1-.426-.067c-.242-.157-.494-.3-.742-.452-.225-.136-.454-.263-.679-.4l.008,0a.743.743,0,0,1-.124-.086.676.676,0,0,1-.2-.7.046.046,0,0,1,0,0,.655.655,0,0,1,.82-.427,4.1,4.1,0,0,1,.458.215l.51.255c.328.165.656.329.982.5q.545.283,1.09.569c.338.177.682.345,1.018.529l.034.019h0l.007,0,.247.135-.061-.033a1.7,1.7,0,0,1,.745.632.77.77,0,0,1,.066.6.734.734,0,0,1-.484.463.849.849,0,0,1-.374.029c-.039-.006-.077-.017-.116-.027-.114-.026-.23-.045-.345-.063l-.058.009a2.726,2.726,0,0,1-.481-.013l-.3-.02-.312-.023a.65.65,0,0,1-.13.129,1.067,1.067,0,0,1-.281.146,3.607,3.607,0,0,1-.572.151c-.2.041-.406.086-.609.123-.4.072-.8.139-1.2.191s-.775.1-1.165.125c-.42.031-.839.043-1.259.048h.078c-.164,0-.328,0-.493,0C-240.652,6324.928-241.06,6324.92-241.466,6324.909Z" transform="translate(354.64 -6299.822)" fill="#040506"/>
        <path id="Path_10493" data-name="Path 10493" d="M-152.628,6336.15a.1.1,0,0,1-.031-.136,3.149,3.149,0,0,1,.3-.446c.075-.089.155-.174.237-.256a1.91,1.91,0,0,1,.213-.2.9.9,0,0,1,.095-.062.341.341,0,0,1,.127-.034.339.339,0,0,1,.241.1.161.161,0,0,1,.032.207.159.159,0,0,1-.218.048l-.068-.044-.005,0h-.018l-.016,0-.045.016-.058.029c-.05.031-.1.064-.144.1h0c-.069.059-.132.122-.2.186l0,0-.014.014.009-.01c-.039.043-.076.087-.112.133-.073.1-.137.209-.2.317a.1.1,0,0,1-.083.045A.1.1,0,0,1-152.628,6336.15Z" transform="translate(266.604 -6313.757)" fill="#040506"/>
        <path id="Path_10494" data-name="Path 10494" d="M-171.878,6332.626l-.284-.04-.577-.083c-.406-.061-.812-.123-1.217-.189q-.584-.1-1.167-.2c-.289-.029-.577-.066-.866-.1-.351-.037-.7-.057-1.056-.088-.186-.016-.373-.023-.559-.034l-.165-.01c-.533.011-1.065.021-1.6.026h.083a5.969,5.969,0,0,1-.667-.014.651.651,0,0,1-.594-.507.639.639,0,0,1-.009-.208l-.877-.15a4.958,4.958,0,0,1-.675-.152.546.546,0,0,1-.367-.4.54.54,0,0,1,.163-.51.66.66,0,0,1,.2-.126.715.715,0,0,1,.274-.034.643.643,0,0,1,.056-.584,1.062,1.062,0,0,1,.138-.172.892.892,0,0,1,.2-.127,1.1,1.1,0,0,1,.356-.1.759.759,0,0,1,.245-.155,2.409,2.409,0,0,1,.784-.119c.186-.01.372-.025.559-.028h-.035l.784-.01h.064c.2,0,.409.008.613.011.167,0,.332.007.5.015l.581.03a.623.623,0,0,1,.131-.123.643.643,0,0,1,.463-.1l.024,0c.48.051.957.139,1.433.214.219.035.437.067.656.1a8.154,8.154,0,0,1,1.117.212.658.658,0,0,1,.416.4c.118.022.236.045.354.07a.663.663,0,0,1,.5.427.664.664,0,0,1-.114.636.662.662,0,0,1-.338.222q.581.1,1.162.2l0,0a.34.34,0,0,1,.283.309.347.347,0,0,1-.359.369h-.051a.609.609,0,0,1,.229.3.616.616,0,0,1-.107.6.67.67,0,0,1-.357.219.56.56,0,0,1-.119.012A1.433,1.433,0,0,1-171.878,6332.626Z" transform="translate(289.902 -6308.541)" fill="#040506"/>
        <path id="Path_10495" data-name="Path 10495" d="M-158.7,6292.295a.628.628,0,0,1-.214-.589.809.809,0,0,1,.174-.374q-.155.1-.313.2a5.327,5.327,0,0,1-.744.388,1.036,1.036,0,0,1-.813.033.558.558,0,0,1-.1-.062.823.823,0,0,1-.182.05.65.65,0,0,1-.652-.258.636.636,0,0,1-.015-.7,2.014,2.014,0,0,1,.179-.217l-.016.017.02-.021.038-.04-.019.021c.082-.086.165-.173.248-.258l.209-.217c-.019.021-.038.041-.057.061q.173-.182.35-.361a2.721,2.721,0,0,1,.222-.322c.078-.1.154-.2.236-.3.163-.2.331-.4.51-.588s.349-.362.523-.543l-.026.027c.12-.125.25-.241.375-.361s.231-.229.354-.336l.481-.422c.128-.113.254-.231.388-.339.175-.145.353-.287.53-.43s.342-.284.518-.419l.054-.041q.363-.34.732-.672c.283-.254.564-.508.856-.752.162-.136.321-.278.488-.407.189-.146.381-.282.579-.413a1.4,1.4,0,0,1,.315-.174.932.932,0,0,1,.371-.053.648.648,0,0,1,.32.111,3.741,3.741,0,0,1,.4-.142l.089-.024.141-.126c.257-.229.532-.442.8-.653.141-.108.281-.217.423-.322a2.232,2.232,0,0,1,.495-.319.491.491,0,0,1,.562.182.5.5,0,0,1,.026.516q.4-.256.806-.508c.255-.159.509-.323.77-.47.12-.067.241-.135.363-.2a1.826,1.826,0,0,1,.48-.2.505.505,0,0,1,.286.024c.214-.141.429-.282.644-.421a.56.56,0,0,1,.668.028.562.562,0,0,1,.173.262.572.572,0,0,1,.406.1c.1-.068.2-.134.294-.2.073-.052.147-.1.222-.148a1.35,1.35,0,0,1,.52-.48l.4-.259c.061-.039.121-.08.181-.12a1.057,1.057,0,0,1,.268-.153.558.558,0,0,1,.586.146.557.557,0,0,1,.061.666,1.7,1.7,0,0,1-.3.334c-.053.052-.105.1-.161.153l-.221.2,0,.009a1.307,1.307,0,0,1-.306.38c-.067.067-.136.132-.206.2a.9.9,0,0,1-.1.094c-.115.1-.231.207-.352.3l.012-.009-.37.295.066-.053a18.737,18.737,0,0,1-1.564,1.092c-.15.1-.3.193-.451.289-.186.172-.371.345-.557.517-.609.561-1.2,1.141-1.811,1.7-.232.214-.464.429-.7.637l-.332.289c-.051.044-.1.089-.154.132s-.079.068-.12.1a.863.863,0,0,1-.306.14.61.61,0,0,1-.545-.15q-.884.789-1.754,1.593c-.656.609-1.3,1.232-1.94,1.857-.137.133-.272.269-.407.4l-.283.282-.218.217a4.228,4.228,0,0,1-.367.314.641.641,0,0,1-.837-.092l-.011-.013a.706.706,0,0,1-.129-.22l-.239.22c-.054.049-.109.1-.165.146-.073.062-.148.122-.226.179a1.484,1.484,0,0,1-.318.165.506.506,0,0,1-.2.039A.655.655,0,0,1-158.7,6292.295Z" transform="translate(273.625 -6270.654)" fill="#040506"/>
        <path id="Path_10496" data-name="Path 10496" d="M-144.986,6333.342c-.079-.005-.159-.012-.239-.02-.17-.018-.342-.036-.51-.066a7.353,7.353,0,0,1-.912-.213,2.3,2.3,0,0,1-1.166-.752,1.348,1.348,0,0,1-.266-.6,1.014,1.014,0,0,1,.156-.728,1.267,1.267,0,0,1,.65-.46c0-.011,0-.022,0-.033l0-.11a.659.659,0,0,1,.026-.143.651.651,0,0,1,.131-.274.883.883,0,0,1,.168-.151.826.826,0,0,1,.283-.113,1.437,1.437,0,0,1,.519,0,5.051,5.051,0,0,1,.614.126,5.377,5.377,0,0,1,.591.208,4.68,4.68,0,0,1,.642.317l.16.093a6.09,6.09,0,0,1,.715.18,2.886,2.886,0,0,1,.622.281,1.158,1.158,0,0,1,.262.211c.036.042.07.083.1.128a.956.956,0,0,1,.1.2.619.619,0,0,1,.026.332.66.66,0,0,1-.139.3.826.826,0,0,1-.568.252,3.712,3.712,0,0,1-.913,0l-.311-.038c-.078-.01-.155-.031-.232-.046-.187-.038-.369-.084-.552-.133a6.212,6.212,0,0,1-.96-.345,4.065,4.065,0,0,1-.536-.291c-.026.074-.051.148-.076.223a.089.089,0,0,1-.169-.053c.03-.087.057-.177.089-.264l-.057.015c-.072.022-.143.046-.213.073l-.083.043-.02.014,0,.017.013.036.014.027c.017.027.035.053.054.078s.037.041.056.061.066.057.1.083.088.059.134.086a2.958,2.958,0,0,0,.28.128c.161.058.324.106.49.149.13.032.261.06.392.085l.051.007.309.047a2.252,2.252,0,0,1,.581.137.465.465,0,0,1,.267.384.468.468,0,0,1-.252.448.652.652,0,0,1-.308.065C-144.908,6333.347-144.947,6333.345-144.986,6333.342Z" transform="translate(263.025 -6309.564)" fill="#040506"/>
        <path id="Path_10497" data-name="Path 10497" d="M-121.838,6346.085a1.334,1.334,0,0,1-.138-.016c-.041-.005-.081-.014-.121-.021-.08-.017-.16-.035-.239-.059a1.678,1.678,0,0,1-.206-.081l-.017-.008a1.051,1.051,0,0,1-.136,0c-.1,0-.206-.024-.307-.037-.071-.01-.142-.025-.212-.038-.277-.049-.553-.112-.826-.181l.019.005-.02-.005.019.005-.043-.011.008,0-.08-.021.031.009-.285-.07.032.008-.047-.012-.059-.015.009,0-.012,0-.066-.016-.079-.02-.283-.069.017,0-.061-.015.032.008c-.4-.091-.792-.178-1.193-.25-.218-.04-.435-.076-.654-.111-.184-.031-.369-.054-.553-.081-.146-.015-.292-.034-.439-.043-.084,0-.17-.013-.254-.015s-.176,0-.263,0c-.258.009-.518.014-.775.048l-.052.01a.257.257,0,0,1-.289-.163.255.255,0,0,1,.009-.189.263.263,0,0,1,.144-.131,1.471,1.471,0,0,1,.426-.082c.125-.011.25-.016.375-.018.149,0,.3,0,.446,0,.061,0,.121.008.181.012s.128.008.191.016l-.033,0,.407.046-.033,0c.109.011.218.03.327.046l.243.038.127.021a.125.125,0,0,1,0-.014.032.032,0,0,0,0,.005.505.505,0,0,1,.062-.152.182.182,0,0,1,.154-.059,1.1,1.1,0,0,1,.16.01c.215.022.43.058.644.094.114.019.228.041.342.064a.26.26,0,0,1-.022-.087.277.277,0,0,1,.147-.264.268.268,0,0,1,.173-.026l.084.02c.055.011.113.018.169.025l-.033,0c.459.049.922.068,1.381.125q.738.091,1.476.2c.365.051.732.111,1.092.193.207.047.411.1.616.154l.266.074c.126.035.282.072.307.224a.228.228,0,0,1-.174.268.451.451,0,0,1-.112,0,.286.286,0,0,1,.026.071.28.28,0,0,1-.146.3.491.491,0,0,1-.388-.017l-.2-.023h0l-.176-.021.035,0-.2-.022.011,0q-.3-.034-.61-.059a.3.3,0,0,1-.006.233.32.32,0,0,1-.225.174.613.613,0,0,1-.107.013Zm-1.482-.8c.1.02.2.038.3.054l.109.017a.266.266,0,0,1,.012-.074.281.281,0,0,1,.177-.184l.036-.009c-.17-.026-.339-.048-.509-.07l-.241-.027h.006l-.147-.017c-.109,0-.218-.006-.326-.017-.125-.013-.248-.028-.373-.046a5.515,5.515,0,0,1-.559-.124l.008,0-.022-.006-.179-.045-.02,0-.146-.036.01,0-.023-.005a9.022,9.022,0,0,0-1.062-.19h0c-.035,0-.07-.006-.105-.007l-.02,0-.011,0h0l-.009.015-.009.021-.009.028c0,.009,0,.018,0,.028v.007c.136.023.273.047.409.073.409.075.818.159,1.222.26l.062.015h0l.081.02-.033-.007.071.017-.022,0,.084.021h0l.028.007-.015,0,.08.02.094.022h0l.036.009.025.006h0l-.029-.007.032.008h0l.035.008-.02-.005.026.007h0l.336.083-.017,0,.047.012C-123.709,6345.2-123.515,6345.243-123.319,6345.283Z" transform="translate(248.41 -6320.89)" fill="#040506"/>
        <path id="Path_10498" data-name="Path 10498" d="M-672.084,6437.136a.348.348,0,0,1-.209-.137,1.865,1.865,0,0,1-.173-.373l.018.044c-.093-.223-.164-.453-.241-.681s-.149-.438-.217-.66c-.149-.487-.3-.974-.435-1.463-.035-.12-.072-.24-.1-.36-.01-.04-.021-.079-.032-.12l-.046-.173,0,.008-.012-.049h0c0,.01.005.021.008.032l-.01-.038h0v0l0-.006h0q-.037-.141-.071-.282v0l0-.006h0c-.033-.133-.066-.266-.1-.4s-.061-.25-.09-.375c0,.011.006.023.009.034-.038-.146-.067-.294-.1-.441-.015-.076-.028-.152-.042-.228-.01-.056-.022-.113-.031-.17h0v0a.066.066,0,0,0,0-.007h0a9.742,9.742,0,0,1-.1-.981c0-.073-.009-.146-.011-.22,0-.1,0-.2,0-.3,0-.164,0-.327.006-.49v.042c0-.142.007-.286.016-.427v.042c0-.119.014-.238.023-.356.007-.1.017-.192.026-.288s.017-.191.028-.287c.009-.079.017-.158.026-.236a1.317,1.317,0,0,1,.016-.139c.016-.132.03-.264.049-.4,0-.02,0-.039.008-.058v0c0-.013,0-.027.006-.041.005-.043.011-.085.017-.128v0c0-.028.007-.056.011-.084s0-.033.007-.049l.01-.075-.005.037c.025-.206.063-.411.1-.615s.08-.438.138-.653c0,.012-.006.023-.008.034.033-.131.073-.262.108-.393,0,.011-.006.022-.008.034.033-.13.083-.258.126-.385s.087-.236.135-.352h0a.063.063,0,0,1,0-.012s0-.008.006-.012.012-.028.017-.042h0c.011-.031.025-.061.036-.09l0,.006.044-.105a.029.029,0,0,0,0,.006l0-.008,0,0h0l.025-.06-.009.023.021-.053a.01.01,0,0,0,0,0c.051-.125.1-.248.159-.371l0-.007c.049-.115.1-.229.154-.34l-.013.032c.044-.108.1-.211.149-.316.042-.088.084-.174.126-.261.085-.175.167-.352.252-.527s.176-.375.276-.556c.054-.1.1-.2.162-.293l.154-.256c.034-.061.076-.119.114-.177s.071-.113.112-.165l-.023.03c.068-.1.137-.2.211-.3l.021-.029,0,0,.087-.113-.023.031.064-.084-.007.009.044-.058c.2-.26.42-.5.64-.746.1-.116.213-.228.326-.336a4.153,4.153,0,0,1,.377-.336c.091-.07.181-.14.277-.2s.2-.133.307-.2a6.058,6.058,0,0,1,.575-.3c.223-.1.446-.2.674-.285a5.65,5.65,0,0,1,.6-.2h-.005l.246-.063h-.006a8.688,8.688,0,0,1,1.088-.181c.346-.042.7-.071,1.042-.113l-.013,0c.092-.012.185-.022.278-.032.475-.061.955-.094,1.433-.126.5-.034,1.007-.062,1.512-.059h.13c.189,0,.379,0,.569.008.649,0,1.3-.028,1.944-.095.09-.012.179-.025.27-.035l.241-.043c.076-.013.152-.036.227-.054l.12-.035c.059-.071.119-.141.181-.208.084-.088.17-.174.259-.258s.163-.144.245-.215.174-.15.263-.225a3.776,3.776,0,0,1,.547-.4l-.01.005a.084.084,0,0,1,.013-.006l0,0,0,0a6.19,6.19,0,0,1,.621-.318,6.363,6.363,0,0,1,.705-.251c.131-.04.266-.067.4-.094.11-.024.223-.042.335-.055.241-.028.485-.053.728-.059.094,0,.188-.006.282-.006h0c.094,0,.189,0,.283,0a10.1,10.1,0,0,1,1.471.109c.24.033.48.076.719.114q.331.053.663.111c.467.082.928.192,1.389.3.478.115.958.216,1.443.291h.012c.228.029.454.052.682.071l.31.023.158.015.158-.023-.037.005.166-.021-.037.005c.276-.035.553-.063.831-.075s.576-.012.866-.007c.52.008,1.038.064,1.558.084a7.81,7.81,0,0,1,.828.056c.264.039.524.1.784.157.286.062.571.125.852.208a5.341,5.341,0,0,1,.756.284c.194.09.386.185.574.287a5.364,5.364,0,0,1,.505.3c.088.061.176.121.261.186s.19.15.282.23c.077.065.149.134.222.2s.136.126.2.193.112.108.164.164.118.118.177.178.1.1.145.146l-.017-.018.019.019.05.05-.025-.025.062.063-.005-.006.065.066-.026-.026.038.04-.025-.025.067.067h0l.042.042c.06.06.119.12.178.18l-.024-.024.2.2c.195.193.389.383.59.571.177.165.36.324.543.483s.373.321.562.479.371.3.557.448c.441.336.9.652,1.352.966s.909.616,1.362.926c.54.37,1.089.722,1.655,1.05l-.008,0,.012.007-.005,0a21.735,21.735,0,0,0,2.2,1.1h0l.007,0,.007,0h0l.035.015-.016-.006.094.038-.016-.006a16.681,16.681,0,0,0,1.583.549,7.68,7.68,0,0,0,.9.174c.12.014.237.027.356.039a2.069,2.069,0,0,1,.351.059.161.161,0,0,1,.114.1.131.131,0,0,1-.056.145,1.015,1.015,0,0,1-.305.113l.016,0a7.474,7.474,0,0,1-.8.158,6.328,6.328,0,0,1-.8.062l-.2,0c-.2,0-.408-.007-.611-.024a5.908,5.908,0,0,1-.81-.126c-.307-.069-.614-.144-.919-.226l.028.008-.087-.023a8.951,8.951,0,0,1-1.524-.542c-.254-.121-.507-.243-.755-.373s-.507-.264-.755-.406c-.095-.054-.19-.1-.286-.157l0,0,0,0-.008,0h0l0,0h0c-.1-.057-.2-.113-.3-.172l-.07-.041.012.007-.025-.015-.009,0,.005,0-.04-.023,0,0-.005,0h0l-.006,0-.013-.007h0l-.057-.034-.03-.016c-.2-.115-.4-.242-.6-.367-.176-.112-.349-.233-.514-.362-.443-.341-.865-.708-1.288-1.074-.211-.184-.429-.364-.634-.555s-.411-.369-.609-.564c-.155-.153-.322-.3-.487-.443s-.354-.3-.535-.443h0l-.062-.048,0,0-.007,0-.029-.023-.023-.018h0l-.023-.018-.014-.011-.007-.005-.025-.019c-.168-.12-.335-.244-.505-.36l-.565-.386c-.349-.237-.69-.49-1.054-.7l-.042-.025-.045-.026h0l-.008,0h0l-.042-.024.048.028-.07-.041.012.008c-.118-.064-.236-.128-.356-.187s-.249-.114-.376-.168c-.218-.083-.436-.163-.66-.234s-.454-.142-.683-.2c-.172-.041-.342-.082-.515-.12s-.345-.06-.516-.084a9.662,9.662,0,0,0-1.133-.057c-.261,0-.522.011-.783.023s-.521.026-.779.058l.045-.005-.142.017.045,0-.087.01.045-.005-.086.01.045,0c-.263.042-.525.091-.784.154l-.306.072a1.29,1.29,0,0,1-.086.356h0v0h0l0,0c0,.012-.008.021-.013.033s0,0,0,0a4.233,4.233,0,0,1-.317.589,7.1,7.1,0,0,1-.429.607l0-.005a4.357,4.357,0,0,1-.36.394l0,0h0l0,0-.024.023.007-.006-.046.046.033-.034a4.409,4.409,0,0,1-.419.374,3.765,3.765,0,0,1-.416.284h0l0,0-.022.013h0l-.012.007h0l-.034.02.012-.008a2.574,2.574,0,0,1-.637.266l.043-.011-.079.021.007,0a2.862,2.862,0,0,1-.3.063c-.18.022-.361.046-.542.053-.148.007-.293.011-.441.011h-.123a8.639,8.639,0,0,1-1.047-.08l.042,0c-.318-.041-.636-.086-.953-.139-.142-.023-.283-.049-.423-.077s-.3-.06-.449-.1l.038.01c-.129-.033-.257-.068-.385-.107a3.51,3.51,0,0,1-.34-.128,3.91,3.91,0,0,1-.608-.349c-.191-.125-.381-.254-.572-.38s-.392-.249-.591-.37l0,0-.006,0h0l-.114-.066,0,0-.017-.01c-.19-.106-.384-.2-.582-.292-.05-.02-.1-.04-.151-.061l.014.006c-.147-.051-.294-.1-.445-.143-.172-.044-.346-.082-.522-.11l.015,0c-.049-.005-.1-.009-.147-.013l-.032.01c-.3.1-.6.176-.9.254h.007l-.076.019.019,0c-.073.02-.146.038-.219.057l.038-.011c-.24.063-.481.117-.725.166-.225.044-.451.076-.678.106s-.476.065-.713.1-.5.079-.745.1c-.184.019-.369.031-.553.043s-.341.029-.51.049c-.318.044-.631.108-.943.183-.164.042-.327.089-.488.141-.177.057-.351.127-.524.2l.043-.018c-.271.109-.533.235-.792.369l-.2.109c-.12.071-.239.145-.357.22s-.238.162-.357.244l-.144.108-.019.015h0l0,0h0l-.011.008.016-.012.006,0c-.17.13-.329.272-.486.418-.067.069-.135.136-.2.207-.08.09-.16.181-.238.271-.131.15-.256.305-.381.459-.05.068-.1.136-.151.2s-.1.14-.144.211-.09.148-.137.221l0-.006-.067.116-.017.029-.051.089.026-.044c-.053.1-.109.2-.163.3-.065.123-.127.246-.19.37-.1.2-.2.4-.3.605-.226.447-.458.894-.662,1.351-.023.05-.046.1-.068.147l-.015.036c-.038.093-.077.187-.115.279a.011.011,0,0,1,0,0,.013.013,0,0,0,0-.006l-.007.016a.148.148,0,0,1-.005.014v0s0,0,0,.005h0c-.055.139-.105.279-.152.419-.054.159-.107.319-.152.48,0,.017-.009.033-.013.05h0l-.01.036h0l-.005.019c-.008.033-.017.064-.026.1,0,0,0,.01,0,.014h0l-.018.064c-.031.12-.059.24-.09.36l.013-.047c-.221.965-.442,1.933-.6,2.913l-.023.135c-.015.132-.028.264-.046.4s-.021.248-.029.373-.008.254-.02.381v-.043c0,.136-.006.274-.014.41s-.009.258-.01.387v-.042c0,.142,0,.283-.008.424v-.029c0,.029,0,.058,0,.085v-.007c0,.113,0,.226,0,.339,0,.484.032.967.068,1.45.03.433.051.866.1,1.3a.748.748,0,0,1,.036.242h0a.348.348,0,0,1-.151.261.347.347,0,0,1-.185.053A.312.312,0,0,1-672.084,6437.136Zm-.446-4.14v-.023l0-.016,0,.018h0Zm0-.064h0v0l0-.017Zm0-.108v-.025h0Zm0,0v-.024l0-.017Zm-.332-.134v0Zm0,0-.03-.105.02.078v0l-.006-.022.01.036Zm.334-.348c0-.017,0-.034,0-.052l0-.014C-672.524,6432.295-672.524,6432.317-672.524,6432.339Zm-.437-.014v-.009Zm0,0-.01-.034.007.024Zm.436-.008v-.025h0Zm-.445-.017-.005-.021,0-.008.006.024Zm.479-.8Zm0,0h0v0Zm-.835-.834v0Zm0,0v0Zm-.082-1.7,0-.076c0,.021,0,.041,0,.062Zm0,0v-.021h0Zm.043-.806c0-.036,0-.072.005-.107,0,.031,0,.062-.007.093Zm0-.023v0Zm-.513-.9c0-.01,0-.019,0-.029Zm.658-.55v0Zm0-.021v0Zm2.565-.067v0a.013.013,0,0,0,0-.005Zm-2.545-.071c.006-.055.014-.109.022-.165-.008.051-.016.1-.023.152Zm0-.015v0Zm1.84-.2h0Zm44.117-.134h0Zm0,0h.009l-.163-.026Zm2.195-.02.052-.008h-.008Zm-46.22-.079.01-.024.006-.014v0h0Zm43.384-.034h0l-.007,0-.1-.023.1.026h0Zm-43.369-.007h0v0l0,0h0A.032.032,0,0,0-671.254,6426.026Zm40.16-1.275-.048-.025.031.018h0l-.015-.009.016.009Zm-41.652-.025h0l.04-.1-.042.1c0-.006.006-.014.009-.022l-.007.019Zm.451-1.054,0,0,0-.008Zm2.562-.661.052-.088h0l-.008.013.008-.013.006-.013Zm2.4-1.653,0,0Zm32.471-.066c-.092-.07-.183-.14-.273-.21l-.01-.006C-635.056,6421.148-634.962,6421.22-634.865,6421.292Zm-.259-.2-.012-.009h0Zm-.736-.038-.06-.058.043.044h0l0,0,0,0Zm-.121-.122-.039-.037.028.029h0l-.01-.01.01.011Zm-1.686-.456,0,0Zm-15.154-.007-.246-.032.228.032Zm-.02,0-.021,0,.02,0Zm-17.135-.4.035-.039-.029.03Zm3.295,0,.084-.046h0Zm-3.288-.009.009-.009-.008.009Zm3.372-.037.028-.016h0Zm0,0,.026-.015.01-.007-.027.015Zm-3.276-.06,0,0Zm.046-.042.013-.016,0,0Zm.012-.016,0,0,0,0,0,0Zm32.377-.255c-.062-.047-.124-.093-.187-.139l.163.124Zm-.023-.015-.022-.017.02.015Zm-19.166-.137h0l-.01-.006Zm-8.109-.2.068-.018h0l.019-.005h-.006Zm-3.337-.475.185-.073-.172.065,0,0,.01,0-.018.007Zm10.176-.144h0l.062-.029Zm9.977-.056-.008.014.013-.021Zm0,0,.005-.01h0Zm.117-.211.019-.036h0C-647.786,6418.389-647.792,6418.4-647.8,6418.412Zm-18.372-.088.07-.009-.063.007h.011l-.013,0Zm1.344-.158h.01l.021-.005-.023,0h-.009Zm.745-.095h0Zm0,0h0Zm7.468-.1c.06-.033.119-.068.177-.1-.055.032-.11.064-.166.095h0l.02-.011-.022.013Zm-1.013-.041.026-.014-.012.008.013-.008h0l0,0,0,0Zm-1.165-.3.008-.007,0,0,0,0h0l-.006.006,0-.006-.005.006h0Zm.16-.164.045-.049h0Zm18.421-.356-.011,0h0l.009,0Zm-.005,0-.01,0-.019-.006Zm-3.388-.047h0Zm0,0,.026,0-.1,0Zm-.305,0h0Zm0,0,.024,0-.036,0Zm-4.4-.1.042-.017-.032.011Zm.017-.009.015-.006-.014.006Zm-.256-.476.012-.005h0Zm-8.172-.122.012-.007.02-.014Zm4.409-.664v0h.013l-.017,0h0Z" transform="translate(674.077 -6376.196)" fill="#040506"/>
        <path id="Path_10499" data-name="Path 10499" d="M-388.941,7142.6a3.99,3.99,0,0,1-.432-.055l.031,0c-.279-.048-.556-.1-.83-.17-.137-.035-.272-.073-.407-.11s-.261-.086-.392-.128c-.025-.008-.05-.014-.076-.021a1.382,1.382,0,0,1-.1.107,1.116,1.116,0,0,1-.292.188,1.222,1.222,0,0,1-.306.095,1.435,1.435,0,0,1-.151.014h-.026c-.039,0-.079,0-.117-.006a1.69,1.69,0,0,1-.288-.054c-.184-.048-.359-.126-.539-.186l-.092-.03h0q-.119-.035-.241-.059l.012,0a1.836,1.836,0,0,0-.22-.024h.012c-.043,0-.086,0-.129,0a2.955,2.955,0,0,0-.292.048l.01,0c-.077.016-.154.035-.229.056l-.113.032a.264.264,0,0,1-.069.015.1.1,0,0,1-.1-.106c.008-.083.111-.124.175-.155l-.013.006c.011-.006.022-.01.033-.018h0l.005,0c.089-.044.18-.086.27-.131a3.574,3.574,0,0,0,.375-.227l-.009.007.012-.009h0c.148-.106.287-.222.424-.341s.3-.267.461-.386a1.857,1.857,0,0,1,.262-.162,1.245,1.245,0,0,1,.31-.119.992.992,0,0,1,.335-.015,1.433,1.433,0,0,1,.262.056.9.9,0,0,1,.136.05c.012-.012.024-.024.036-.038l.014-.015c.02-.034.041-.068.063-.1l.035-.05a4.98,4.98,0,0,1-.731-.265c-.236-.111-.451-.256-.685-.37-.141-.063-.288-.11-.429-.169a2.921,2.921,0,0,1-.445-.239l.018.011c-.114-.073-.224-.15-.337-.224-.046-.028-.093-.055-.142-.079a1.3,1.3,0,0,0-.15-.057h0c-.142-.041-.285-.072-.429-.1-.117-.025-.232-.06-.349-.082l-.054-.007h-.023c-.031,0-.063.008-.095.014h-.007c-.031.009-.06.021-.09.028a.729.729,0,0,1-.134.017h-.009l-.009,0-.02.009h0a1.185,1.185,0,0,0-.129.078c-.026.02-.053.039-.078.061a.736.736,0,0,0-.067.07l.014-.017s-.009.01-.014.016h0c-.065.077-.126.156-.19.233l-.008.009-.006.007-.057.067h0l0,0-.009.011h0c-.039.049-.075.1-.11.154s-.07.12-.1.18c-.048.083-.1.164-.146.247s-.1.17-.149.254c-.041.064-.085.125-.13.186a2.168,2.168,0,0,1-.335.375.912.912,0,0,1-.531.208h0a.664.664,0,0,1-.272-.037c-.081-.032-.155-.08-.233-.119-.027-.012-.055-.023-.083-.033l-.065-.017-.048,0h-.044l0,0h0c-.012.008-.023.018-.035.028l-.02.02-.06.094,0-.005c-.01.018-.021.034-.032.05l.022-.033c-.024.037-.047.074-.071.11l.021-.034-.041.065-.032.049c-.017.027-.034.055-.052.083a4.987,4.987,0,0,0-.271.488c-.036.079-.068.161-.1.242a.809.809,0,0,1-.144.263h0a.32.32,0,0,1-.179.093.3.3,0,0,1-.046,0,.321.321,0,0,1-.317-.31.808.808,0,0,1,.108-.337v0l.023-.05-.018.04a5.568,5.568,0,0,1,.482-.823c.179-.262.361-.522.533-.789h0l0,0h0l.011-.017h0c.01-.018.021-.035.032-.052l-.01.017c.02-.033.041-.064.062-.1l-.005.007s.006-.008.009-.013v0l.005-.008.005-.008,0,0h0s.005-.009.009-.014h0l.031-.048c.041-.063.081-.127.123-.19.1-.164.218-.321.335-.473.134-.174.271-.344.416-.508a3.621,3.621,0,0,1,.306-.31,3.046,3.046,0,0,1,.35-.277c.065-.045.132-.089.2-.13s.137-.074.207-.108a1.945,1.945,0,0,1,.453-.152,3.275,3.275,0,0,1,.359-.057c.125-.01.25-.012.375-.013a4.918,4.918,0,0,1,.709.054c.115.017.23.042.344.069s.236.059.352.091a5,5,0,0,1,.646.237c.105.047.209.1.31.149s.176.1.263.153c.184.11.366.223.552.33s.357.211.542.307.365.184.551.271a2.771,2.771,0,0,0,.277.111c.038.01.076.021.115.027a1.273,1.273,0,0,0,.136.013c.08,0,.162,0,.244,0a1.791,1.791,0,0,1,.749.086l.033.015c.127-.057.253-.114.378-.174l.035-.018-.01.005a2.8,2.8,0,0,0,.252-.147,4.085,4.085,0,0,0,.335-.276v0l.012-.011.227-.207h0c.145-.131.287-.267.433-.4l-.016.015.033-.03h0l.017-.015,0,0a.012.012,0,0,1,.006,0h0l.059-.054-.014.014a5.455,5.455,0,0,0,.46-.445h0a1.462,1.462,0,0,1,.44-.446.524.524,0,0,1,.156-.04,1.1,1.1,0,0,1,.144-.012,1.729,1.729,0,0,1,.31.021c.441.07.861.225,1.291.334.085.022.173.037.256.066a.3.3,0,0,1,.154.126.435.435,0,0,1,.051.152,1.545,1.545,0,0,1-.025.5h0s0,0,0,0a.033.033,0,0,1,0,.009s0,0,0,.005h0c0,.005,0,.011,0,.016h0l-.005.027-.005.036h0v0l0,.014v0a3.1,3.1,0,0,0-.038.345c0,.048,0,.1,0,.147l0-.022a1.181,1.181,0,0,0,.021.145c.017.07.038.139.055.209a.462.462,0,0,1,.009.274.247.247,0,0,1-.1.118.249.249,0,0,1-.124.037.647.647,0,0,1-.156-.018l.028.005a1.389,1.389,0,0,1-.5-.161,1.137,1.137,0,0,1-.188-.157c-.049-.05-.095-.1-.146-.15l-.013-.01h-.005l-.016.005-.024.01-.019.012-.009.006c-.012.013-.024.024-.036.039l.013-.016c-.007.008-.013.014-.019.022-.064.08-.121.167-.18.25s-.118.173-.178.26c-.111.161-.221.322-.328.486a.24.24,0,0,1,.141.045.244.244,0,0,1,.091.152,2.173,2.173,0,0,1,.014.373,2.362,2.362,0,0,1,0,.4.939.939,0,0,1-.154.4,1.007,1.007,0,0,1-.27.271,1.344,1.344,0,0,1-.149.084l.03-.016a2.192,2.192,0,0,1-.537.193,4.216,4.216,0,0,1-.538.071l.021,0c-.312.026-.623.028-.937.032l-.163,0C-388.723,7142.61-388.832,7142.607-388.941,7142.6Zm-2.524-.527.012-.007h0Zm1.846-.059h0Zm-3.827-.03h0l.024-.018Zm7.014-1.005,0-.023h0Zm-.315-.048h0Zm0,0h0v0Zm0,0h0v0Zm-4.684-.035.011-.007,0,0h0Zm-.591-.01.017-.008-.013,0h-.005Zm-5.84-.235h0Zm6.888-.272h0l-.005-.006Zm0,0h0Zm-7.3-.141h0Zm.107-.167h0l0,0Zm.017-.026h0Zm8.487-.018h0Zm.879-.053.013.013h0c.076-.05.146-.094.211-.135C-388.633,7139.893-388.708,7139.933-388.784,7139.971Zm-2.469-.168.03.013-.03-.014Zm0,0-.022-.01h0Zm-.007,0h.007l-.022-.01-.012,0Zm6.711-.258h0l-.023-.005Zm-12.417-.214.01-.015-.006.007Zm.006-.011.007-.008-.007.008Zm.623-.587.049-.035-.033.022,0,0,.017-.011-.02.014Zm12.135-.041v0Zm-.31-.142,0-.024h0s0,.009,0,.013l0-.015v-.007Zm.033-.4v0a.008.008,0,0,1,0,0h0Z" transform="translate(459.421 -6940.848)" fill="#040506"/>
        <path id="Path_10500" data-name="Path 10500" d="M-255.812,7057.721h-.1l-.085,0h-.043c-.154,0-.306-.015-.458-.026s-.3-.033-.443-.054l-.171-.024h-.058c-.233-.015-.465-.028-.7-.051s-.47-.067-.706-.1-.446-.061-.668-.095c-.244-.039-.486-.091-.727-.144l.025,0c-.282-.056-.562-.107-.845-.159s-.557-.1-.838-.141c-.574-.076-1.15-.127-1.726-.2-.258-.032-.515-.065-.771-.11a6.6,6.6,0,0,1-.785-.2c-.243-.075-.487-.14-.727-.225s-.458-.175-.689-.259c-.048-.017-.1-.03-.143-.045a7.535,7.535,0,0,1-.819.553,3.329,3.329,0,0,1-.4.161h0c-.09.031-.182.059-.274.081a2.922,2.922,0,0,1-.342.069,1.986,1.986,0,0,1-.253.016c-.125,0-.249-.01-.373-.02-.21-.018-.42-.041-.629-.072a2.977,2.977,0,0,1-.293-.056,1.644,1.644,0,0,1-.286-.111h0l0,0-.008,0h0a3.98,3.98,0,0,1-.509-.316,5.515,5.515,0,0,1-.455-.384l-.034-.03-.005,0h0l-.005,0h0a7.3,7.3,0,0,0-.679-.517c-.137-.086-.274-.17-.418-.246l-.014-.007.01.006-.222-.11.021.01c-.184-.092-.363-.192-.545-.286a.1.1,0,0,0,.017.01c-.2-.1-.4-.188-.593-.287l.016.007c-.038-.019-.075-.036-.112-.056h0c-.282-.143-.547-.316-.825-.466h0l-.005,0-.005,0h0c-.069-.033-.139-.063-.212-.09-.083.009-.166.016-.249.018a3,3,0,0,1-.375-.016c-.12-.014-.24-.038-.358-.063-.2-.042-.389-.094-.585-.139l-.057-.012.026,0a.594.594,0,0,1-.142-.037h0a.155.155,0,0,1-.053-.035.162.162,0,0,1-.042-.158c.038-.114.153-.151.259-.178a1.835,1.835,0,0,1,.326-.052,4.284,4.284,0,0,1,.672.033,4.16,4.16,0,0,0,.441,0l-.045,0c.1-.009.2-.021.3-.037.046-.012.091-.024.137-.038s.062-.025.092-.04l.029-.014c.04-.023.078-.049.118-.073.1-.072.2-.147.3-.215a.018.018,0,0,0,.009-.006l-.223-.038c-.145-.025-.289-.055-.434-.082a7.666,7.666,0,0,0-.845-.105c-.148-.01-.3-.02-.441-.038s-.3-.05-.441-.083-.3-.075-.45-.112-.3-.069-.452-.1c-.2-.042-.4-.095-.6-.149s-.405-.111-.606-.173c-.235-.071-.469-.148-.7-.241s-.444-.2-.661-.306l.038.02c-.136-.067-.271-.138-.406-.206l.038.02-.09-.045.038.019-.076-.038.038.02a10.3,10.3,0,0,1-1.157-.673h0l-.005,0a13.211,13.211,0,0,1-1.509-1.16c-.232-.211-.451-.436-.669-.661a4.935,4.935,0,0,1-.579-.716c-.182-.275-.363-.553-.531-.838s-.352-.588-.54-.875l-.013-.02v0h0l-.048-.07c.005.009.011.016.016.024-.154-.223-.315-.44-.464-.666l.016.025-.073-.107.017.025c-.04-.06-.08-.12-.116-.181a.33.33,0,0,1-.055-.3.259.259,0,0,1,.246-.156.473.473,0,0,1,.2.062c.235.121.46.256.683.4a10.654,10.654,0,0,1,1.5,1.181c.249.233.486.479.718.73.113.122.224.245.343.362s.243.229.367.34a6.748,6.748,0,0,0,.6.453c.355.23.708.459,1.076.67s.749.4,1.128.6l-.051-.025.073.036c.023.012.046.024.071.035h0a.02.02,0,0,1,.008,0h0l.055.027-.028-.014.056.028.025.012c.25.124.5.238.759.351.234.1.476.188.718.272.258.082.513.166.774.239s.517.13.777.188c.3.059.6.1.909.146.32.047.638.1.956.163.166.032.33.077.493.124s.331.1.492.155c.3.111.608.22.907.342.608.25,1.206.522,1.81.782q.437.186.881.353c.288.108.576.213.861.328.6.244,1.189.524,1.774.808s1.157.55,1.74.813,1.17.526,1.767.763c.294.115.595.22.893.326q.488.173.973.353c.54.2,1.08.406,1.62.606h0c.236.08.47.16.709.229s.492.128.739.186c.232.053.462.114.693.171.181.045.363.084.545.123.141.013.283.025.423.036a4.479,4.479,0,0,1,.508.093c.076.015.153.025.229.036a.072.072,0,0,1,.056.035l.076.013.019,0a.047.047,0,0,1,.038.027.056.056,0,0,1,.009.028.053.053,0,0,1-.034.051.135.135,0,0,1-.053.009Zm-13.888-1.607-.026-.006Zm-.349-.123,0,0Zm-.016-.008h0Zm0,0-.005,0Zm3.574-.071.029-.019Zm-3.917-.128h0Zm0,0h0Zm3.255-.049.016-.012h0Zm-1.821-.645c-.033-.016-.065-.03-.1-.047h0l.009,0-.01,0-.009,0Zm1.446-.17.017,0c-.071-.024-.141-.05-.209-.075C-267.66,7054.87-267.595,7054.895-267.531,7054.916Zm-.009,0-.016,0Zm-6.8-1.265h0l.017-.007Zm5.315-.019-.252-.092-.02,0C-269.2,7053.567-269.11,7053.6-269.023,7053.631Zm-.223-.083-.022-.007Zm-7.84-2.095h.007l-.088-.019Zm0,0h0l-.014,0Zm-3.068-1.145h0l0,0Zm-1.252-.749.01,0-.015-.008Zm0,0h0l0,0Zm0,0h0Zm-2.315-2.068.014.017-.023-.029.009.013Zm-.386-.93-.2-.187-.015-.011C-284.259,7046.425-284.187,7046.492-284.115,7046.559Zm-.18-.169-.017-.016h0Zm-.294-.247,0,0c.031.022.063.047.095.072l-.1-.089A.088.088,0,0,0-284.59,7046.143Z" transform="translate(370.726 -6868.346)" fill="#040506"/>
        <path id="Path_10501" data-name="Path 10501" d="M-98.408,7409.987a2.879,2.879,0,0,1-.69-.077,4.522,4.522,0,0,1-.718-.269c-.192-.088-.375-.191-.568-.276-.049-.018-.1-.034-.147-.049-.222-.052-.492-.057-.646-.249a.551.551,0,0,1-.1-.179c-.04-.013-.081-.026-.121-.042a.478.478,0,0,1-.271-.223.381.381,0,0,1-.019-.293.372.372,0,0,1,.231-.227.553.553,0,0,1,.177-.018h-.043a1.628,1.628,0,0,0,.188-.012l.062-.008c-.084-.016-.169-.031-.254-.043s-.2-.02-.3-.022h.022c-.192,0-.384.007-.576.025-.432.053-.857.15-1.286.229l-.359.118c-.544.178-1.093.341-1.637.523-.25.083-.5.165-.752.247-.106.035-.213.068-.319.1a1.073,1.073,0,0,1-.376.077h0a.313.313,0,0,1-.084-.017.337.337,0,0,1-.168-.5.964.964,0,0,1,.379-.265c.149-.069.3-.128.454-.187.261-.1.528-.19.794-.28.541-.184,1.085-.36,1.627-.543.238-.081.477-.161.714-.243s.478-.166.722-.229h.006l.047-.012-.02,0,.157-.04c.291-.075.586-.132.882-.185.151-.027.3-.05.456-.072s.291-.044.437-.062l-.012,0,.043-.005h0l-.026,0,.038,0h-.008l.124-.015c.25-.03.5-.053.751-.072a6.877,6.877,0,0,1,.784,0,6.411,6.411,0,0,1,.779.086,7.675,7.675,0,0,1,.81.189l-.049-.013.075.021a16.465,16.465,0,0,1,2.067.752l-.041-.016c.355.147.7.316,1.055.468.168.066.337.129.507.193.186.07.379.122.57.18.1.026.2.05.3.078.326.07.651.142.979.207s.67.111,1.005.165l-.02,0c.282.038.565.066.848.093.257.024.513.047.771.052H-89a5.95,5.95,0,0,0,.612-.016c.064-.008.129-.015.192-.029l.036-.012h0a.055.055,0,0,1,.048.1.644.644,0,0,1-.132.04c-.083.022-.167.037-.252.051a4.28,4.28,0,0,1-.511.053c-.4.018-.789.033-1.184.021h.014c-.164,0-.329-.012-.493-.021s-.313-.018-.469-.033c-.344-.031-.69-.061-1.033-.113l.027,0a13.656,13.656,0,0,1-1.665-.3c-.283-.074-.566-.154-.842-.253l-.05-.018a.416.416,0,0,1-.16.207,2.692,2.692,0,0,1-.3.189l-.137.078-.03.017-.051.029-.211.122.041-.023-.1.06.029-.017a7.129,7.129,0,0,1-.766.374,6.018,6.018,0,0,1-.808.307l.021,0-.043.011-.015,0,.008,0a3.5,3.5,0,0,1-.438.078h.015l-.025,0,.023,0a5.582,5.582,0,0,1-.664.042Zm-1.89-1.542a.218.218,0,0,1-.017-.028l-.061.014Z" transform="translate(231.08 -7151.177)" fill="#040506"/>
        <path id="Path_10502" data-name="Path 10502" d="M-499.5,7330.917a8.5,8.5,0,0,1-1-.062c-.264-.03-.525-.076-.788-.113s-.508-.067-.76-.112h0l-.054-.011.007,0a.174.174,0,0,0-.024,0l-.026-.005.009,0-.124-.023h0q-.138-.025-.274-.058a2.475,2.475,0,0,1-.322-.091,4.511,4.511,0,0,1-.605-.3c-.082-.048-.161-.1-.242-.151s-.165-.1-.248-.142l-.01,0a1.691,1.691,0,0,1-.279.172,1.6,1.6,0,0,1-.275.095,1.4,1.4,0,0,1-.325.044l-.078,0a1.684,1.684,0,0,1-.4-.052,2.158,2.158,0,0,1-.343-.1,1.575,1.575,0,0,1-.284-.139c-.057-.038-.115-.076-.169-.118a2.89,2.89,0,0,1-.269-.24,2.648,2.648,0,0,1-.228-.276c-.051-.067-.1-.136-.151-.2h0c-.009-.01-.017-.021-.028-.032l0,0-.009-.011h0c-.038-.041-.077-.079-.117-.116l0,0h0l-.008-.007.005.005a3.918,3.918,0,0,0-.394-.305,1.724,1.724,0,0,0-.178-.1l0,0h-.005c-.032-.014-.062-.026-.1-.039h0l-.006,0,.005,0-.009,0h0l-.027-.009-.073-.018c-.042-.007-.084-.013-.127-.018h.012a1.617,1.617,0,0,0-.182,0,1.936,1.936,0,0,0-.244.035l.011,0-.076.015-.014.005a.428.428,0,0,1-.086.019.1.1,0,0,1-.11-.061c-.045-.118.114-.2.192-.254a3.19,3.19,0,0,1,.385-.216l-.007,0c.323-.16.654-.3.981-.451a2.572,2.572,0,0,0,.234-.13l0,0,.032-.021q.1-.072.192-.152l0,0,.042-.036-.017.015.141-.125,0,0,.043-.039-.016.014a1.172,1.172,0,0,1,.565-.321l.046-.006c-.175-.222-.353-.441-.524-.666-.368-.484-.673-1.017-1.07-1.477-.246-.266-.518-.5-.755-.777-.213-.245-.4-.506-.616-.752l-.037-.039a3.234,3.234,0,0,1-.422.121,4.411,4.411,0,0,1-.6.093,3.219,3.219,0,0,1-1.173-.127c-.1-.028-.2-.055-.3-.076s-.2-.028-.309-.036a4.38,4.38,0,0,0-.467,0,9.292,9.292,0,0,0-.968.16,8.689,8.689,0,0,0-.911.24,7.877,7.877,0,0,0-.74.314,5.978,5.978,0,0,0-.6.349l.041-.028-.058.04-.077.051-.016.011c-.1.075-.2.151-.3.234l0,0a.385.385,0,0,1-.5.036.379.379,0,0,1-.148-.25.4.4,0,0,1,.073-.282c.1-.148.21-.291.318-.433.154-.2.307-.406.475-.6l-.035.041.071-.083h0l.026-.03-.012.014a9.172,9.172,0,0,1,.855-.854l-.04.035c.308-.273.621-.54.95-.788a4.67,4.67,0,0,1,1.013-.6,4.165,4.165,0,0,1,.61-.2,2.232,2.232,0,0,1,.6-.068,3.125,3.125,0,0,1,.323.028,3.653,3.653,0,0,1,.574.124,5.158,5.158,0,0,1,.567.2,7.715,7.715,0,0,1,1.041.527,8.154,8.154,0,0,1,1.04.757,6.14,6.14,0,0,1,.521.5q.209.226.4.468c.117.151.226.308.34.461s.222.292.333.438c.2.259.409.5.614.754l-.01-.01.154.173-.012-.013.018.02.009.011.01.012,0-.006a7.14,7.14,0,0,0,.512.513l.006.005,0,0,.01.008,0,0,.189.162c.254.21.51.419.763.63a8.954,8.954,0,0,0,.761.591h0l.007,0-.007,0,.009.005h0l.053.033c.133,0,.267.008.4.013a4.006,4.006,0,0,0,.446-.007c.182-.018.359-.061.541-.072l.537-.034c.091-.008.182-.021.272-.037.071-.016.141-.036.21-.058.1-.04.2-.083.3-.132.239-.125.466-.268.7-.409.25-.154.505-.294.768-.426a6.42,6.42,0,0,1,1.022-.4c.314-.092.634-.167.955-.234l-.012,0a6.023,6.023,0,0,1,.87-.132,5.9,5.9,0,0,1,.9.026,7.254,7.254,0,0,1,.781.125,6.548,6.548,0,0,1,.732.19l-.033-.012a8.489,8.489,0,0,1,1.032.4,8.811,8.811,0,0,1,1,.54c.311.2.62.4.94.583.29.166.6.293.888.458a1.754,1.754,0,0,1,.382.282.94.94,0,0,1,.153.189h0a.358.358,0,0,1-.023.4.553.553,0,0,1-.384.187h.023l-.038,0h-.006a2.365,2.365,0,0,1-.828-.181,6.422,6.422,0,0,1-.887-.365c-.239-.122-.467-.264-.695-.406-.14-.033-.28-.064-.421-.093-.38-.062-.759-.112-1.142-.142-.162-.008-.324-.01-.486,0-.1.01-.2.022-.3.037l.031-.006-.192.039c-.125.033-.25.065-.373.1s-.256.1-.382.157c-.095.05-.187.1-.279.156l-.039.026h0l0,0h0l-.009,0-.009.007h0l0,0a.043.043,0,0,0-.009.006h0l-.06.041h0c-.071.053-.139.107-.206.164-.12.11-.24.222-.354.339s-.24.253-.362.377c-.058.059-.117.115-.179.17a4.843,4.843,0,0,1-.059.6,2.663,2.663,0,0,1-.206.775,1.542,1.542,0,0,1-.382.517,1.858,1.858,0,0,1-.563.328,3.131,3.131,0,0,1-.76.156,4.485,4.485,0,0,1-.525.034Zm-1.632-1.208h0Zm-.159-.008h0Zm-1.624-.2-.016-.005Zm-1.868-.042.014-.005h0Zm-.881-.007-.007,0,.006,0Zm7.526-.269.005-.02h0Zm-8.4-.417Zm-.772-.215,0,0Zm-.4-.368h0l.033-.016Zm1.781-1.129.02-.02-.02.017h0Zm3.274-.026-.042-.015h0Zm3.26-.008.1-.055-.087.044Zm.018-.011.021-.012-.018.009Zm-4.353-.114h0Zm.106-.149.015-.008h0Zm5.019-.129-.035.017.1-.046-.058.025Zm.018-.012.015-.008-.014.007Zm5.16-.158-.006,0-.116-.013Zm-10.824-.1-.162-.11.007.007Zm8.854-.39-.13-.012h-.005l-.039,0Zm-.1-.012h0Z" transform="translate(550.745 -7083.703)" fill="#040506"/>
        <path id="Path_10503" data-name="Path 10503" d="M7.833,7617.42a.525.525,0,0,1-.188-.058l-.13-.054c-.193-.068-.392-.123-.589-.182s-.367-.1-.551-.149l-.01,0-.009,0h.005l-.124-.029.026.005-.141-.032h0l-.022-.005-.014,0-.034-.007h0l-.011,0H6.036l-.006,0h0l-.093-.021.025.005-.184-.041.025.005-.07-.016h0l-.107-.024c-.154.052-.312.1-.468.133a4.739,4.739,0,0,1-.784.125q-.085.006-.169.006A3.118,3.118,0,0,1,3.56,7617a3.157,3.157,0,0,1-.391-.106c-.125-.044-.246-.1-.367-.153-.169-.073-.34-.14-.51-.211-.194-.08-.382-.167-.569-.266l-.066-.035c-.056-.029-.111-.057-.167-.083a1.209,1.209,0,0,1-.126.05,1.312,1.312,0,0,1-.237.054,2.115,2.115,0,0,1-.3.021H.733a2.445,2.445,0,0,1-.434-.042,2.869,2.869,0,0,1-.411-.13h0a3.485,3.485,0,0,0-.381-.118l.016,0a1.46,1.46,0,0,0-.147-.025H-.63a4.051,4.051,0,0,0-.449,0H-1.1c-.068,0-.137.006-.2.014l-.057.024h0l-.05.023-.06.026.019-.008a.293.293,0,0,1-.206.041.156.156,0,0,1-.106-.114.155.155,0,0,1,.061-.159.344.344,0,0,1,.121-.056c.112-.047.226-.087.338-.131.162-.064.327-.124.488-.192l.019-.008.056-.026-.016.007a2.9,2.9,0,0,0,.315-.161c.061-.039.12-.082.177-.126.139-.116.273-.237.414-.351l0,0a1.825,1.825,0,0,1,.377-.253,1.2,1.2,0,0,1,.347-.1.471.471,0,0,1,.114,0c-.015-.027-.031-.055-.048-.081l.017.027-.035-.057-.03-.047.028.046c-.069-.109-.137-.218-.213-.323s-.142-.187-.216-.28c-.334-.393-.685-.77-1.036-1.147s-.727-.779-1.106-1.155c-.178-.177-.361-.346-.535-.527a6.832,6.832,0,0,1-.537-.626c-.157-.211-.3-.43-.45-.646s-.3-.42-.444-.636a5.814,5.814,0,0,1-.585-1.126c-.152-.391-.3-.787-.414-1.188l-.02-.069v0a.055.055,0,0,0,0-.012s0-.011,0-.016v0h0v0h0a.074.074,0,0,1,0-.008h0l0-.008-.005-.02v0a5.023,5.023,0,0,1-.168-1c-.013-.156-.026-.312-.043-.468l-.028-.119c-.037-.162-.063-.326-.1-.488-.017-.076-.035-.151-.051-.227a.476.476,0,0,1,.012-.312.328.328,0,0,1,.389-.179.3.3,0,0,1,.112.059.811.811,0,0,1,.2.341c.043.112.08.228.114.343l0,0c.057.192.1.387.16.578,0-.016-.009-.032-.014-.048.013.044.026.089.039.133,0,0,0-.007,0-.01s0,.006,0,.01v0l0,.009,0,.009s0,0,0,0q.077.248.179.487c.011.023.021.048.031.073l0-.007.007.015c0,.008.008.017.011.024l0-.007.005.011,0,0,0,.008a.027.027,0,0,1,0,.009c.076.163.163.32.254.475.128.2.26.392.4.581l-.033-.041.114.139c.165.189.329.38.5.564.187.2.373.4.558.6.356.388.713.775,1.084,1.147.108.109.217.213.326.318.225.208.459.4.689.6a8.477,8.477,0,0,0,.678.56l-.031-.023c.18.118.359.235.537.354a5.388,5.388,0,0,1,.523.4,2.957,2.957,0,0,1,.256.232c.08.088.158.177.235.267.145.17.292.338.433.512l0-.007c.044.054.089.107.132.161h0l0,0a.074.074,0,0,1,.012.015v0a3.428,3.428,0,0,1,.278.391l-.011-.018c.081.13.155.263.235.395.108-.087.219-.174.328-.26l.006,0,.007-.006-.005,0,.1-.083-.009.007.073-.061-.008.006.056-.046c.068-.06.136-.119.2-.177s.148-.139.224-.208c.139-.126.269-.264.4-.4.056-.062.115-.123.174-.182.241-.275.477-.556.712-.837.116-.138.231-.275.348-.41s.243-.29.371-.426l.022-.023.011-.012-.007.007c.084-.089.168-.178.26-.259s.191-.165.288-.245a4.733,4.733,0,0,1,.639-.461,5.842,5.842,0,0,1,.657-.342c.115-.048.231-.093.348-.132s.217-.067.324-.1c.492-.151.972-.333,1.465-.479l-.031.008c.15-.044.3-.084.452-.125.057-.018.115-.033.172-.05l-.006,0,.118-.034h0l.1-.03c.278-.084.553-.18.828-.278s.558-.206.834-.316l.01,0h0a3.273,3.273,0,0,0,.3-.157l-.013.009c.067-.043.129-.088.191-.136l.014-.011c.029-.052.06-.1.089-.155.061-.107.132-.208.192-.317.012-.023.023-.047.032-.07a.309.309,0,0,1,.055-.126.077.077,0,0,1,.059-.021h0c.078.006.108.086.112.155a1.113,1.113,0,0,1-.057.305h0l0,.007a.022.022,0,0,0,0,.008v0c-.025.111-.057.221-.084.333l.005-.025c-.081.356-.132.719-.211,1.075a.179.179,0,0,0,0,.02l0,.012h0c0,.007,0,.014,0,.021a2.491,2.491,0,0,1-.107.328c-.038.1-.078.19-.123.283a3.824,3.824,0,0,1-.308.51h0l0,0h0a6.249,6.249,0,0,1-.518.656l.042-.045a6.542,6.542,0,0,1-1.278,1.093,6.625,6.625,0,0,1-.808.417l.01-.005-.026.012-.023.01.005,0-.01,0-.026.011.007,0-.01,0-.005,0h0l-.014.006.007,0-.008,0h0l-.022.01-.009,0c-.526.233-1.067.426-1.6.652a6.213,6.213,0,0,0-.6.319,7.074,7.074,0,0,0-.693.492l-.049.04c-.067.056-.133.113-.2.17a2.539,2.539,0,0,0-.193.193,4.633,4.633,0,0,0-.319.4l-.057.08,0-.005-.1.139.026-.037c-.125.177-.258.349-.4.518-.087.107-.177.213-.265.319h.014a.946.946,0,0,1,.54.084.483.483,0,0,1,.224.25.78.78,0,0,1,.035.25.055.055,0,0,1,0,.011c.007.009.013.019.02.027.049.057.1.113.146.172a1.039,1.039,0,0,1,.129.214c.009.022.019.043.028.067.193.052.383.113.578.158H7.629c.2.043.4.065.593.111a.917.917,0,0,1,.275.1.363.363,0,0,1,.145.149.317.317,0,0,1-.041.343,2.012,2.012,0,0,1-.244.227c-.07.061-.141.12-.21.18-.03.025-.059.052-.091.075a.366.366,0,0,1-.214.069Zm-1.459-.443h0Zm1.427-.1H7.687l.116.04.041-.042Zm-7.167-.95h0Zm.056,0h0Zm-1.381-.22h0l.045-.024Zm2.352-.045v0l-.095-.016c.032,0,.063.011.095.018l-.033-.006.027.006Zm2.982-.227c.034-.026.07-.05.106-.073l.012-.01C4.723,7615.375,4.682,7615.4,4.643,7615.433Zm.091-.063.011-.006,0,0Zm-3.576-.758-.042-.08-.012,0h0Zm2.2-.194h0Zm.009-.005h0Zm0,0h0Zm.925-.66.043-.037-.038.03Zm.008-.01.01-.009-.01.008Zm-1.047-.207.011-.009h0Zm-2.053-.328-.088-.1c.027.031.054.063.08.094Zm-.01-.007-.007-.008.006.008Zm2.554-.054.02-.017Zm5.688-1.988.02-.009h0l-.01,0Zm.012-.005.01,0h0Zm-10.3-.065-.016-.012.006.006Zm-.011-.007-.006-.006h0l.007.007Zm-.04-.037h0Zm-1.186-1.177-.078-.1.061.078h0l-.014-.018.016.02Zm.845-.037-.013-.012h0Zm-.016-.013h0l-.01-.009Zm10.042-.373.1-.042-.087.036Zm.012-.007h0ZM-2.758,7609l-.029-.033.018.023Zm-.012-.011-.011-.014.01.012Zm15.789-1,0-.005v0Zm.16-.394.012-.028h0Zm-16.834-.025h0Zm16.55-.137.006,0Zm-16.688-.282-.076-.1h0l0,.006Zm-.791-.619v0Zm.847-.784,0,0Z" transform="translate(151.2 -7305.23)" fill="#040506"/>
      </g>
    </g>
    <g id="Group_228" data-name="Group 228" transform="translate(906.466 205.465)">
      <path id="Path_10504" data-name="Path 10504" d="M-1374.894,4546.521c-.4-.03-.812-.044-1.217-.089a10.071,10.071,0,0,1-1.162-.21c-.371-.087-.737-.2-1.1-.3a7.775,7.775,0,0,1-1.08-.348c-.349-.153-.685-.332-1.03-.493-.125-.058-.248-.118-.368-.186s-.239-.146-.354-.227l0,0-.021-.015a.038.038,0,0,0-.011-.006c-.153-.108-.3-.219-.455-.325l-.03-.021.035.024-.125-.086.034.023c-.157-.109-.311-.22-.462-.336s-.271-.216-.413-.315l.027.02c-.079-.052-.157-.1-.24-.142-.058-.027-.116-.052-.176-.076-.164-.055-.331-.1-.5-.137-.076-.016-.152-.029-.229-.04a3.556,3.556,0,0,1-.64.36,2.082,2.082,0,0,1-.4.133.546.546,0,0,1-.464-.053.326.326,0,0,1-.075-.417.4.4,0,0,1,.158-.146l.056-.045-.009.009c.157-.13.318-.249.474-.377.108-.093.209-.192.314-.287s.209-.193.307-.3c.07-.081.135-.164.2-.25a3.171,3.171,0,0,1,.906-.991,3.861,3.861,0,0,1,.5-.261,2.353,2.353,0,0,1,.533-.182,2.15,2.15,0,0,1,.571-.02c.185.016.369.037.552.056s.361.036.539.068c.06.011.119.023.178.038l.168-.076.007,0h0l.029-.013.2-.091c.168-.077.336-.154.5-.234q-.157-.121-.313-.246c-.147-.116-.288-.243-.429-.366s-.287-.25-.42-.385a7.146,7.146,0,0,1-.518-.558c-.083-.1-.165-.206-.242-.314s-.152-.222-.226-.336c-.268-.418-.467-.873-.712-1.3-.2-.31-.428-.6-.648-.9s-.447-.613-.671-.918q-.676-.921-1.4-1.8l-.459-.566a5.074,5.074,0,0,0-.355-.378c-.078-.067-.156-.129-.237-.191-.259-.172-.529-.32-.8-.471s-.542-.307-.816-.453c-.073-.034-.146-.068-.222-.1-.055-.019-.112-.036-.169-.05-.08-.016-.161-.028-.244-.038-.13-.008-.26-.01-.389-.009a6.113,6.113,0,0,1-.668.033.414.414,0,0,1-.391-.311.438.438,0,0,1,.145-.414,2.384,2.384,0,0,1,.462-.307c.156-.09.314-.175.474-.255a9.415,9.415,0,0,1,2.192-.814,4.618,4.618,0,0,1,.588-.1c.219-.02.438-.027.659-.027a3.783,3.783,0,0,1,.62.061,3.689,3.689,0,0,1,.569.142,5.368,5.368,0,0,1,1.127.529c.356.223.694.471,1.027.727.3.23.6.463.889.708.316.269.62.549.914.842.259.257.495.536.737.809.257.29.522.571.786.854.132.142.259.289.388.432s.268.284.409.419c.173.151.353.291.54.424.61.4,1.238.78,1.831,1.209a5.6,5.6,0,0,1,1.067,1.012l.265-.215q.914-.736,1.835-1.463c.292-.229.582-.458.882-.675s.617-.44.93-.652.621-.4.939-.587.664-.38,1.013-.54l.008,0h0l.16-.072-.049.023a13.532,13.532,0,0,1,1.563-.566,11.574,11.574,0,0,1,1.55-.382l-.017,0c.4-.067.8-.116,1.209-.15.195-.017.393-.022.589-.028s.369-.007.553,0c.781.049,1.555.186,2.33.292.559.078,1.117.152,1.678.207l-.036,0c.779.062,1.558.132,2.339.183s1.581.083,2.373.1c.407.007.815,0,1.221.007s.815,0,1.222-.016c.764-.03,1.528-.066,2.286-.159.18-.021.359-.053.54-.064a.282.282,0,0,1,.235.063.2.2,0,0,1,.031.232.665.665,0,0,1-.261.239,4.474,4.474,0,0,1-.484.261,7.961,7.961,0,0,1-1.074.394,10.27,10.27,0,0,1-1.135.279c-.4.069-.8.109-1.206.143-.379.032-.758.057-1.138.071l-.085,0-.122,0h-.023c-.451.015-.9.024-1.352.039-.47.015-.941.011-1.412.026h.039a15.116,15.116,0,0,0-1.718.162l.019,0c-.24.041-.479.082-.717.131-.2.041-.394.094-.588.148-.279.091-.553.19-.824.307a12.012,12.012,0,0,0-1.226.66l-.051.032-.022.015.007-.005-.041.026-.009,0,0,0-.012.007h0l-.046.028h0l0,0h0c-.293.188-.585.377-.879.563l.012-.008c-.251.159-.5.315-.753.473h0c-.176.113-.353.226-.522.351s-.328.25-.488.38c-.255.225-.495.463-.736.7s-.5.5-.745.759c-.155.175-.3.354-.439.544-.2.293-.383.591-.574.889s-.383.615-.574.922-.413.612-.628.91a10.673,10.673,0,0,1-.69.878,3.221,3.221,0,0,1-.275.258,14.779,14.779,0,0,0,1.387.574l-.041-.014c.135.047.269.1.4.145l-.039-.014c.132.048.264.1.395.146l-.027-.01.089.033-.037-.014.1.036a8.822,8.822,0,0,0,.9.273c.144.027.288.048.435.065.223.015.447.015.672.014s.428,0,.64-.007h0l.105,0h.008l.239-.012a.349.349,0,0,1,.232.033.145.145,0,0,1,.05.157.217.217,0,0,1-.106.112c-.264.163-.537.313-.808.464a7.194,7.194,0,0,1-1.035.459,10.022,10.022,0,0,1-1.109.346c-.337.081-.683.136-1.026.19s-.715.1-1.076.125-.711.045-1.067.054-.718,0-1.078.01c-.206.008-.408.025-.61.053-.351.065-.695.161-1.045.227-.185.035-.37.068-.553.108s-.381.088-.574.118a2.509,2.509,0,0,1-.387.027C-1374.4,4546.567-1374.645,4546.54-1374.894,4546.521Zm7.908-1.366c.1-.01.191-.022.286-.036l.014,0C-1366.786,4545.13-1366.886,4545.143-1366.986,4545.155Zm.268-.032.016,0h0Zm2.168-.656.056-.026h-.006Zm-16.432-.479h0l-.014-.006Zm0,0-.013-.008-.027-.013Zm-2.373-1.083h0l.063-.067Zm2.806-1.912,0-.017h0Zm.654-.493,0,0h0l0,0h0l-.009,0Zm.013-.007h0l0,0Zm0,0h0Zm0,0h0Zm.01,0h0Zm0,0h0l.015-.007Zm2.271-.117h0l.063-.034Zm-3.276-2.806h0s0,0,0,0l0,0-.006-.012-.013-.017.013.021,0,0Zm9.262-1.733.067-.057-.061.049Zm.007-.009.011-.01-.011.009Zm9.75-.6h0Zm12.329-2.722c.067-.025.134-.051.2-.079h-.01C-1349.395,4532.45-1349.459,4532.476-1349.522,4532.5Zm-10.074-.06h0Zm-.247-.021.047,0-.031,0Zm.039,0h0Zm-4.721-.13h0Zm-23.048-2.1h0l.144-.055Z" transform="translate(1389.507 -4496.346)" fill="#040506"/>
      <path id="Path_10505" data-name="Path 10505" d="M-1156.81,4413.241a4.251,4.251,0,0,1-.891-.244,8.028,8.028,0,0,1-.951-.437l.059.03a6.354,6.354,0,0,1-1.749-1.372,21.4,21.4,0,0,1-1.38-1.717c-.364-.488-.714-.985-1.073-1.478s-.711-.955-1.087-1.418c-.363-.427-.724-.856-1.074-1.292-.338-.421-.656-.856-1-1.272-.124-.143-.248-.282-.375-.421s-.252-.251-.383-.371c-.2-.168-.4-.331-.6-.486s-.441-.318-.664-.476l.021.015-.016-.011h0l-.01-.007h0l-.016-.012h0l-.009-.007-.068.017c-.133.029-.266.054-.4.079-.256.046-.516.071-.774.1s-.534.066-.8.11l.076-.013-.308.052h0l-.177.029.076-.013c-.192.032-.383.059-.575.084-.083.011-.168.018-.251.025-.1.009-.208.017-.31.017h-.018a4.2,4.2,0,0,1-.57-.033c-.194-.031-.387-.064-.579-.111-.714-.177-1.407-.43-2.121-.608-.3-.074-.588-.146-.875-.247l-.045-.016.014,0a13.94,13.94,0,0,1-1.409-.595c-.466-.229-.915-.492-1.375-.733l0,0-.039-.021h0l-.119-.062.035.019-.1-.049h0c-.182-.094-.365-.187-.547-.278l0,0c-.3.307-.591.631-.885.947a9.712,9.712,0,0,0-.8,1l.018-.026-.146.21.019-.026c-.228.336-.451.676-.652,1.028-.064.126-.126.252-.183.382s-.105.259-.154.391c-.069.211-.137.423-.2.637s-.112.416-.163.624c-.022.1-.047.209-.063.314s-.035.234-.049.352c-.026.339-.056.682-.051,1.023v0a.177.177,0,0,1,0,.022v-.018a.582.582,0,0,1-.02.266.3.3,0,0,1-.294.176.463.463,0,0,1-.312-.169,1.568,1.568,0,0,1-.123-.155,7.718,7.718,0,0,1-.392-.668c-.122-.221-.255-.438-.369-.666a4.913,4.913,0,0,1-.329-.771,5.486,5.486,0,0,1-.15-.569,3.818,3.818,0,0,1-.067-.545,3.013,3.013,0,0,1,.011-.458c.011-.1.023-.2.041-.3.022-.114.048-.228.074-.341.04-.174.082-.349.122-.523.053-.253.105-.505.15-.761s.076-.527.1-.792c.027-.249.052-.5.078-.75s.063-.513.1-.769c.062-.4.156-.8.2-1.21,0,0,0,0,0-.007a.03.03,0,0,0,0,.007.019.019,0,0,1,0-.007h0v0c0-.012,0-.024,0-.037,0,.01,0,.021,0,.03a3.156,3.156,0,0,0,.011-.35c-.009-.175-.037-.348-.057-.522a2.575,2.575,0,0,1-.017-.457,2.19,2.19,0,0,1,.4-1.066,2.511,2.511,0,0,1,.863-.81c.076-.043.151-.085.23-.124a2.653,2.653,0,0,1,.4-.153,3.1,3.1,0,0,1,.378-.089,2.616,2.616,0,0,1,.289-.042c.112-.006.222-.01.334-.01a2.916,2.916,0,0,1,.609.083l-.045-.009.126.028-.01,0c.191.044.378.1.563.165s.393.127.592.18l.143.027c.046.008.093.013.14.017.07,0,.142.008.212.01s.161,0,.242,0c.126,0,.254-.01.381-.014h-.011l.2-.008-.044,0a5.434,5.434,0,0,1,.836.04,7.064,7.064,0,0,1,.758.146c.256.059.513.118.766.189a3.666,3.666,0,0,1,.757.316c.223.121.429.271.64.412s.424.273.643.4c.45.264.894.537,1.357.779l.087.046c.167.085.335.17.505.249s.357.156.541.225l.183.059c.061.02.125.032.188.049.187.036.374.069.563.088h0l.106.01-.024,0,.073.008.042,0c.253.019.505.035.758.053.268.021.535.049.8.081l.731.083c.25.029.5.054.75.1.176.032.354.062.527.112s.337.1.5.158h0l.015.005c.259.055.517.114.775.173a6.537,6.537,0,0,1,1.022.281,4.561,4.561,0,0,1,.507.239,4.291,4.291,0,0,1,.444.285,3.89,3.89,0,0,1,.822.755,3.061,3.061,0,0,1,.517.956,7.316,7.316,0,0,1,.175.845c.05.269.116.539.145.812s.036.557.056.836.055.579.1.869a7.9,7.9,0,0,0,.214.879c.052.156.109.309.169.462v0a5.132,5.132,0,0,0,.25.5c.109.187.22.371.334.553q.283.451.572.9c.189.292.393.574.6.854.42.567.864,1.114,1.3,1.668.336.428.653.869.994,1.291.121.142.245.276.379.407.094.084.193.167.288.253a1.323,1.323,0,0,1,.269.292.521.521,0,0,1,.052.466.52.52,0,0,1-.323.283,1.352,1.352,0,0,1-.214.052,1.662,1.662,0,0,1-.249.02A2.435,2.435,0,0,1-1156.81,4413.241Zm-26.212-6.96v-.005l-.032-.067Zm-.765-3.195.005-.03-.006.023A.06.06,0,0,1-1183.787,4403.085Zm0-.009v0Zm16.464-1.042h0l.034-.016Zm-2.459-.7q.14-.019.281-.034l0,0C-1169.6,4401.309-1169.69,4401.322-1169.782,4401.334Zm1.012-.122-.024-.011.013.007Zm-.013-.005-.011-.006-.009,0,.018.009Zm-11.032-1.4.026-.029h0Zm1.408-.031-.035-.011.022.008Zm-.013,0-.015-.005.012,0Zm14.668,0-.07-.04v0Zm-14.683,0-.011,0h0Zm-.416-.148h0l.022-.023Zm-1.488-.064h0Zm-1.292-.366h0Zm.006,0h0Zm11.939-.917.005-.008h0Zm-.3-.546h0Zm-6.526-2.191h0v0h0Z" transform="translate(1233.799 -4394.249)" fill="#040506"/>
      <path id="Path_10506" data-name="Path 10506" d="M-1175.323,4890.575c-.1-.041-.193-.087-.289-.132-.189-.091-.376-.187-.563-.28l-.217-.067c-.159-.043-.318-.087-.477-.127s-.308-.067-.463-.1h0l-.019,0,.013,0a7.3,7.3,0,0,0-.749-.077h.008l-.156,0h.016a4.866,4.866,0,0,0-.513.023c-.7.086-1.4.267-2.088.419a9.006,9.006,0,0,1-1.082.171,8.394,8.394,0,0,1-1.091.022c-.363-.012-.723-.033-1.085-.064-.175-.016-.352-.035-.527-.055-.193-.022-.387-.04-.578-.072s-.362-.065-.541-.11a4.648,4.648,0,0,1-.53-.174c-.178-.067-.353-.147-.526-.226l-.519-.237c-.218-.1-.438-.2-.654-.3-.235-.114-.467-.232-.7-.348s-.436-.228-.652-.344a8.024,8.024,0,0,1-.709-.408.566.566,0,0,1-.182-.719.565.565,0,0,1,.689-.273,8.954,8.954,0,0,1,1.2.659l-.063-.037.159.095.1.062-.062-.036.063.038c.384.225.773.438,1.163.652.208.115.417.23.628.342s.4.207.608.3c.123.045.243.091.368.132a12.706,12.706,0,0,0,1.366.287l-.019,0,.023,0h.008l.023,0h.005l.01,0h-.006l.148.023h0l.013,0-.012,0,.022,0h-.009l.029,0h-.009c.511.072,1.024.123,1.539.144a7.823,7.823,0,0,0,.876-.029l.183-.019c.35-.04.7-.092,1.048-.146s.694-.113,1.044-.137a6.175,6.175,0,0,1,1.087.017q.2.021.391.049l-.141-.061.045.02-.057-.024h0l-.061-.027.008,0-.016-.007c-.248-.1-.5-.2-.747-.3s-.478-.162-.72-.234c-.727-.192-1.465-.324-2.2-.462h0l-.128-.02c-.722-.109-1.454-.156-2.18-.225-.363-.034-.726-.08-1.087-.133s-.734-.109-1.093-.2c-.175-.042-.346-.091-.519-.141l.017,0c-.359-.105-.707-.25-1.057-.383q-.483-.186-.969-.367c-.7-.258-1.392-.544-2.106-.762l-.047-.014-.055-.016.045.013h0c-.407-.115-.818-.22-1.224-.338-.379-.111-.749-.247-1.128-.358-.233-.06-.464-.11-.7-.152h.011l-.261-.041.029,0c-.314-.047-.629-.083-.945-.113s-.635-.042-.954-.055a13.4,13.4,0,0,0-1.455.059l.033,0-.274.028h0l-.291.033h.007a14.646,14.646,0,0,1-2.151.183c-.368-.015-.733-.041-1.1-.072a9.626,9.626,0,0,1-1.052-.138,1.587,1.587,0,0,1-1.1-.746h0a.2.2,0,0,1-.017-.036.061.061,0,0,1,.012-.057h0a.059.059,0,0,1,.037-.02.059.059,0,0,1,.074.055c.032.04.066.077.1.114.052.05.1.1.161.144s.094.067.144.1h0l.009.006-.005,0c.06.035.12.064.183.093h0l.006,0,0,0c.061.024.122.045.185.064.082.023.163.042.246.057a11.211,11.211,0,0,0,1.26.092h0l.148,0h-.019c.038,0,.077,0,.115,0h-.014c.345.007.688,0,1.032-.025l-.017,0c.24-.027.477-.063.714-.108s.481-.1.721-.143c.467-.089.938-.177,1.411-.229h-.005l.032,0h0l.231-.024h-.007c.364-.044.733-.054,1.1-.062q.632-.014,1.263.006h-.049q.54.013,1.078.076a10.909,10.909,0,0,1,1.138.233c.74.17,1.5.26,2.224.489.611.192,1.217.4,1.822.609s1.19.435,1.794.626c.2.051.391.1.59.141.216.042.432.077.648.112l-.033,0,.039.006h.007l-.028,0,.029,0,.031.005-.019,0h0c.388.057.776.108,1.164.159.423.056.847.1,1.269.167l-.034,0c.373.056.745.118,1.115.2s.729.184,1.088.29.7.2,1.047.331c.38.138.749.3,1.114.469s.745.38,1.1.593l.209.124-.024-.015.393.234-.006,0,.009.005.027.017-.02-.012.054.032,0,0a9.4,9.4,0,0,1,1.036.7l-.025-.019c.061.047.122.1.183.145.032.026.064.052.093.08a.19.19,0,0,1,.04.046h0a.193.193,0,0,1-.036.247.209.209,0,0,1-.137.049A.413.413,0,0,1-1175.323,4890.575Z" transform="translate(1247.922 -4766.731)" fill="#040506"/>
      <path id="Path_10507" data-name="Path 10507" d="M-1168.787,4894.272h.058a2.925,2.925,0,0,1-.392-.036c-.1-.016-.2-.029-.3-.052a4.806,4.806,0,0,1-.671-.191c-.2-.079-.407-.16-.611-.242s-.417-.159-.631-.224l.042.011c-.416-.115-.84-.2-1.254-.332s-.784-.3-1.186-.422c-.14-.036-.278-.067-.42-.1a6.449,6.449,0,0,0-.643-.057h.03c-.255,0-.508,0-.763.021-.072.008-.144.017-.215.029l-.054.021a1.07,1.07,0,0,1-.2.067.247.247,0,0,1-.246-.109.244.244,0,0,1,.024-.294.448.448,0,0,1,.154-.1l.07-.038.177-.088c.114-.056.231-.107.351-.155.263-.1.533-.2.8-.3h0c.176-.069.351-.138.524-.215s.338-.162.5-.25c.1-.057.2-.114.3-.177s.208-.142.312-.214c.194-.144.378-.3.568-.446.1-.076.2-.155.3-.222.081-.051.161-.1.248-.142a2.165,2.165,0,0,1,.27-.1,1.946,1.946,0,0,1,.338-.067,1.961,1.961,0,0,1,.347-.014.255.255,0,0,1,.185.054.175.175,0,0,1,.02.146c-.013.077-.13.05-.117-.025v0c-.092.023-.184.041-.276.062h0l-.006,0h0c-.061.018-.122.035-.184.055l-.041.017.017-.006a2.271,2.271,0,0,0-.262.123c-.066.04-.13.081-.191.125-.126.1-.244.21-.36.321l.013-.013-.02.021h0c-.145.145-.29.29-.445.424a6.252,6.252,0,0,1-.54.424,5.685,5.685,0,0,1-1.176.611l.034,0a7.755,7.755,0,0,1,1.64.4c.171.045.339.088.511.122s.348.062.522.091l.225.037-.014,0a8.686,8.686,0,0,1,1.134.268l-.034-.009.106.03-.048-.014.2.059c.21.057.42.1.632.145.147.022.295.039.443.052l.24.008c.176,0,.349-.015.524-.028.144-.022.287-.043.429-.074a4.562,4.562,0,0,0,.454-.141,7.083,7.083,0,0,0,.684-.323l.026-.014-.006,0-.008,0,0,0h0l-.013.008.119-.066-.058.032.13-.072.053-.029-.041.023.007,0-.016.009.031-.017.209-.116.043-.023-.02.011-.013.007.011-.006-.014.008-.034.019.073-.04.061-.034.1-.053-.04.022c.228-.125.457-.249.688-.37a.436.436,0,0,1,.547.16.439.439,0,0,1-.131.6c-.181.122-.362.244-.544.364-.156.1-.31.209-.47.3a5.9,5.9,0,0,1-.575.314c-.159.073-.317.142-.481.2a3.866,3.866,0,0,1-.407.12,3.08,3.08,0,0,1-.427.077l.062-.005c-.159.017-.318.037-.478.042l-.19,0C-1168.573,4894.279-1168.68,4894.276-1168.787,4894.272Z" transform="translate(1227.458 -4770.905)" fill="#040506"/>
      <path id="Path_10508" data-name="Path 10508" d="M-1156.278,4894.963a.378.378,0,0,1-.182-.065.23.23,0,0,1-.083-.094c-.25-.008-.5-.027-.749-.051-.159-.016-.319-.03-.477-.05a2.759,2.759,0,0,1-.845-.179.419.419,0,0,1-.217-.254c-.094-.012-.188-.027-.281-.043a1.252,1.252,0,0,1-.4-.125l-.04.006c-.117.016-.234.031-.353.042-.174.016-.35.028-.525.031-.48.008-.963,0-1.443-.03-.217.012-.435.016-.652.011h-.042l-.193,0h0l-.169,0h.067a4.843,4.843,0,0,1-.839-.087,1.864,1.864,0,0,1-.224-.056c-.266-.029-.532-.059-.8-.1l.052.008-.244-.038h.015l-.092-.014h.006c-.177-.027-.353-.069-.528-.11a2.9,2.9,0,0,1-.534-.185.841.841,0,0,1-.262-.183.49.49,0,0,1-.059-.081h-.054a.814.814,0,0,1-.424-.11l-.073,0h.005l-.112,0-.02,0c-.128.015-.254.039-.382.052a.478.478,0,0,1-.1.016.292.292,0,0,1-.078-.008.4.4,0,0,1-.2-.054.25.25,0,0,1-.086-.326.328.328,0,0,1,.193-.155.337.337,0,0,1,.056-.144.57.57,0,0,1,.314-.209c.156-.051.314-.094.473-.131.057-.052.117-.1.175-.15.142-.121.286-.242.427-.364s.275-.23.412-.346c.067-.057.135-.115.2-.17a2.323,2.323,0,0,1,.373-.269.269.269,0,0,1,.136-.03.779.779,0,0,1,.531-.046.614.614,0,0,1,.191.1c.085-.007.171-.011.256-.016a4.293,4.293,0,0,1,.747.024,4.865,4.865,0,0,1,.623.109,3.038,3.038,0,0,1,.456.153,1.277,1.277,0,0,1,.4.251l0,0c.053.019.107.039.159.061a1.155,1.155,0,0,1,.514.373.7.7,0,0,1,.084.156c.222.021.444.05.665.083q.443.044.884.114c.346.056.69.117,1.034.181.2.038.394.075.592.116.083.017.164.035.246.053a1.777,1.777,0,0,1,.421.125l.1.01c.265.025.53.05.8.071l.213,0c.188,0,.375,0,.562,0,.13,0,.26,0,.39.007s.236.01.354.024a1.108,1.108,0,0,1,.312.094.486.486,0,0,1,.215.2.43.43,0,0,1,.169.176c.2.042.406.086.608.131a7.63,7.63,0,0,1,.762-.139,5.41,5.41,0,0,1,.555-.05,1.819,1.819,0,0,1,.532.05.5.5,0,0,1,.246.144.326.326,0,0,1,.037.373.237.237,0,0,1,.051.06.233.233,0,0,1,.022.046,1.265,1.265,0,0,1,.231.042.374.374,0,0,1,.222.148.286.286,0,0,1,0,.313.346.346,0,0,1-.386.108c-.113-.021-.224-.047-.335-.071l-.125-.028-.093.006c-.6.064-1.205.148-1.806.227q-.491.064-.981.133c-.3.04-.6.089-.9.116l.034,0-.31.032.024,0c-.079.009-.157.012-.236.017l-.078,0C-1156.186,4894.968-1156.232,4894.966-1156.278,4894.963Z" transform="translate(1221.096 -4771.659)" fill="#040506"/>
      <path id="Path_10509" data-name="Path 10509" d="M-1201.418,5035.21l.033.005a6.9,6.9,0,0,1-.712-.166c-.245-.062-.49-.122-.732-.2a2.684,2.684,0,0,1-.354-.131,3.426,3.426,0,0,1-.334-.187c-.2-.128-.4-.261-.6-.39l-.022-.013.006,0-.064-.039.009.005c-.072-.04-.145-.074-.219-.107-.186-.073-.376-.137-.566-.194-.1-.027-.192-.051-.289-.068h0l-.1-.018.013,0c-.164-.024-.33-.033-.495-.042q-.143-.009-.286-.014c-.067.009-.133.016-.2.022h.016a1.829,1.829,0,0,1-.262.02.114.114,0,0,1-.1-.065.1.1,0,0,1,.026-.122.359.359,0,0,1,.2-.053h.012l.15-.027c.133-.024.265-.05.4-.08h0c.07-.017.14-.036.209-.057s.137-.045.205-.07l-.017.005c.061-.025.121-.053.18-.084a3.86,3.86,0,0,0,.389-.259c.243-.189.475-.394.735-.56a2.8,2.8,0,0,1,.451-.235,1.1,1.1,0,0,1,.447-.093,1.058,1.058,0,0,1,.38.09l-.005,0c.041.018.079.039.12.057l.044.016h0l.008,0h0l.006,0h0l.08.022a.1.1,0,0,1,.061.129.1.1,0,0,1-.128.062l-.11-.036a1.248,1.248,0,0,1-.151-.069l.012,0-.031-.013h0c-.028-.012-.058-.021-.088-.032h0l-.007,0h0c-.031-.008-.062-.015-.093-.021a.7.7,0,0,0-.071-.006,1,1,0,0,0-.108,0l-.08.013a1.557,1.557,0,0,0-.172.055c-.073.031-.144.067-.214.1l.012-.007c-.109.063-.216.127-.319.2-.238.184-.456.391-.693.575a2.444,2.444,0,0,1-.51.315c-.032.014-.065.027-.1.039l.119.013a4.183,4.183,0,0,1,.635.133l-.014,0,.1.028h0l.007,0,.007,0h0l.021.006-.014,0a3.958,3.958,0,0,1,.452.148h0l.07.03-.016-.006c.333.143.636.345.967.494l0,0,.005,0,.017.007-.01-.005c.063.025.126.047.19.068.21.058.423.1.638.135s.454.081.682.118l-.013,0,.019,0,.012,0-.011,0,.118.017h0l.029,0-.017,0c.13.016.259.027.39.031.094,0,.187,0,.281-.01l.111-.012c.133-.024.264-.047.4-.079s.249-.074.373-.117c.061-.025.122-.049.182-.075s.142-.065.211-.1c.121-.059.239-.124.357-.187l-.036.02.1-.054h0l.043-.024a.314.314,0,0,1,.185-.044.291.291,0,0,1,.2.1.3.3,0,0,1-.034.416,3.41,3.41,0,0,1-.323.218c-.109.062-.219.118-.332.171a3.435,3.435,0,0,1-.336.132,2.36,2.36,0,0,1-.332.093c-.1.023-.208.045-.314.06-.127.018-.253.03-.382.036l-.1,0A3.638,3.638,0,0,1-1201.418,5035.21Z" transform="translate(1250.564 -4878.949)" fill="#040506"/>
      <path id="Path_10510" data-name="Path 10510" d="M-1211.41,5017.055c-.212-.021-.424-.045-.635-.068a2.836,2.836,0,0,1-.6-.125,2.127,2.127,0,0,1-.572-.31,3.851,3.851,0,0,1-.809-.876c-.358-.5-.71-.994-1.071-1.487-.1-.132-.206-.259-.318-.383-.073-.073-.147-.145-.223-.215s-.15-.127-.227-.188c-.171-.129-.344-.255-.52-.376s-.351-.226-.53-.334l-.175-.1.038.023-.147-.087.037.022c-.2-.118-.4-.239-.59-.367-.214-.144-.418-.3-.62-.457l.029.022c-.063-.049-.125-.1-.187-.149l.028.023-.164-.129.01.007-.193-.147-.083-.03c-.176-.065-.349-.137-.518-.216a4.522,4.522,0,0,1-.459-.255,3.108,3.108,0,0,1-.411-.3,1.416,1.416,0,0,1-.3-.333.412.412,0,0,1-.015-.443.3.3,0,0,1,.338-.114.8.8,0,0,1,.257.171l-.011-.009.015.012.011.009,0,0c.351.272.713.529,1.077.784.206.081.414.153.627.218.672.186,1.346.372,2.029.515.332.069.667.127,1,.188s.682.144,1.019.24l.327.093-.034-.01c.263.074.524.153.781.246s.514.205.763.322.464.239.693.365.457.245.679.378l0,0c.195.114.386.231.574.357a6.378,6.378,0,0,1,.512.4,3.974,3.974,0,0,1,.447.419,2.874,2.874,0,0,1,.366.512h0c.076.138.149.277.215.419.048.1.092.2.146.3l0-.007-.006-.008-.008-.008-.008-.006a.115.115,0,0,1-.005.188.117.117,0,0,1-.176-.076c-.083-.142-.153-.289-.229-.435v0c-.07-.129-.146-.254-.227-.378l.011.013c-.065-.086-.13-.168-.2-.249a3.863,3.863,0,0,0-.314-.28l.007.005-.069-.053,0,0a6.91,6.91,0,0,0-.65-.458l.006,0-.174-.1.021.011-.029-.017.012.008c-.524-.291-1.065-.551-1.611-.8-.363-.147-.728-.282-1.1-.4-.285-.08-.572-.15-.858-.221s-.572-.134-.863-.18l-.2-.029h0l-.267-.04.038.006-.2-.031.019,0c-.339-.052-.679-.107-1.014-.181l-.184-.042c.142.073.286.142.431.21.323.15.638.311.945.492.156.093.309.19.459.292a4.5,4.5,0,0,1,.44.354,5.792,5.792,0,0,1,.687.794c.187.237.376.471.566.707s.379.468.585.691c.083.079.167.155.254.23.063.047.127.092.194.134s.139.074.212.107c.037.014.074.028.112.04.092.023.184.042.277.057l.353.051-.015,0,.262.04a.54.54,0,0,1,.351.181.519.519,0,0,1,.122.382.526.526,0,0,1-.515.474Z" transform="translate(1261.201 -4861.958)" fill="#040506"/>
      <path id="Path_10511" data-name="Path 10511" d="M-1179.9,5027.07l-.069-.133,0,.008-.019-.035c-.065-.118-.133-.233-.2-.352a.988.988,0,0,1,.009-.906,2.328,2.328,0,0,1,.156-.266c-.209.034-.419.061-.629.081l.023,0-.165.017h.01l-.023,0h.007c-.417.044-.836.079-1.255.1a6.57,6.57,0,0,1-1.253-.078l.026,0c-.162-.025-.323-.052-.483-.084a5.174,5.174,0,0,1-.5-.132c-.156-.047-.311-.105-.462-.166l-.11-.048a.058.058,0,0,1-.065-.016l-.026-.026.006.006-.01-.011-.013-.007c-.047-.024-.1-.062-.088-.121a.066.066,0,0,1,.084-.051v0a.308.308,0,0,1,.068.03h0c.047.018.094.034.142.05l-.006,0a5.149,5.149,0,0,0,.556.125h0l.042.006h-.005l.106.016-.017,0,.038.006-.018,0c.112.011.221.021.333.028h.012l.135,0h-.015a6.394,6.394,0,0,0,.8-.038l-.022,0a11.181,11.181,0,0,0,1.134-.188c.389-.084.78-.164,1.167-.257l-.052.014.105-.025-.011,0,.076-.018-.011,0,.015,0,.011,0-.009,0,.04-.01q.35-.088.7-.186c.211-.061.423-.121.63-.2l.119-.046c.144-.062.285-.126.423-.2l.1-.056a.681.681,0,0,1,.123-.061.512.512,0,0,1,.2-.038h.042v0a.494.494,0,0,1,.186.052.51.51,0,0,1,.264.56.552.552,0,0,1-.236.336,1.2,1.2,0,0,1-.144.077c-.041.021-.082.038-.124.056-.184.112-.361.235-.539.357a5.545,5.545,0,0,0-.46.391c-.079.08-.154.163-.227.248-.046.063-.088.124-.129.188-.013.024-.025.049-.037.074l-.006.016c0,.02-.009.04-.013.061h0c.029.106.072.208.1.313a1.975,1.975,0,0,1,.08.391.322.322,0,0,1-.226.319.311.311,0,0,1-.093.015A.331.331,0,0,1-1179.9,5027.07Z" transform="translate(1234.102 -4872.716)" fill="#040506"/>
      <path id="Path_10512" data-name="Path 10512" d="M-1177.921,5039.853c-.316-.1-.622-.245-.926-.374-.163-.071-.327-.139-.486-.219s-.328-.18-.487-.278c-.1-.06-.191-.12-.288-.177l.035.021a6.306,6.306,0,0,0-.643-.333l0,0c-.175-.074-.351-.143-.531-.2-.06-.016-.118-.031-.179-.042-.042,0-.083-.008-.126-.009a.583.583,0,0,0-.065,0h-.014a.768.768,0,0,0-.082.014l.018,0a.646.646,0,0,0-.089.027l.016-.007c-.021.009-.043.018-.063.028s-.058.034-.085.053-.046.036-.069.056-.021.023-.031.035l-.011.016,0,0a.114.114,0,0,1-.012.161.115.115,0,0,1-.17-.025.213.213,0,0,1-.018-.248.846.846,0,0,1,.43-.356,1.9,1.9,0,0,1,1.116.012,7.818,7.818,0,0,1,.847.225c.281.092.552.206.836.291.265.068.531.125.8.188s.52.12.783.164c.12.016.24.026.361.032.073,0,.145,0,.218-.008.122-.015.241-.036.361-.062a4.355,4.355,0,0,1,.454-.084c.185-.018.371-.024.557-.038.109-.014.217-.032.324-.054.158-.04.313-.087.468-.141a3.158,3.158,0,0,0,.3-.13c.047-.026.093-.055.138-.085l.014-.011c.025-.027.05-.055.074-.083.095-.128.181-.263.278-.391a1.573,1.573,0,0,1,.15-.172.585.585,0,0,1,.122-.1.234.234,0,0,1,.3.044.364.364,0,0,1,.066.3,2.412,2.412,0,0,1-.1.434l0-.007a1.906,1.906,0,0,1-.294.635,2.059,2.059,0,0,1-.765.56,3.3,3.3,0,0,1-.611.231c-.115.029-.231.06-.348.079s-.224.029-.336.042h.017a4.863,4.863,0,0,0-.517.089,3.605,3.605,0,0,1-.56.085c-.049,0-.1,0-.146,0A3.47,3.47,0,0,1-1177.921,5039.853Z" transform="translate(1231.991 -4883.138)" fill="#040506"/>
      <path id="Path_10513" data-name="Path 10513" d="M-1195.777,5024.6q-.3-.084-.6-.184l-.293-.1c-.089-.031-.181-.057-.266-.094l-.027-.012a.543.543,0,0,1-.159,0c-.09-.011-.18-.031-.269-.049-.158-.033-.317-.067-.474-.106s-.33-.079-.5-.115l-.113-.007a.366.366,0,0,1-.085.144,1.012,1.012,0,0,1-.321.2,1.9,1.9,0,0,1-.246.1,2.694,2.694,0,0,1-.507.112,7.926,7.926,0,0,1-1.108.039c-.3-.011-.607-.033-.907-.068a1.937,1.937,0,0,1-.535-.119,3.321,3.321,0,0,1-.384-.205c-.068-.038-.14-.072-.211-.106s-.141-.073-.212-.106c-.237-.1-.484-.162-.717-.27-.086-.041-.172-.082-.256-.128s-.139-.083-.213-.118c-.039-.016-.08-.031-.12-.044l-.024-.005c-.106-.013-.214-.017-.319-.034a.256.256,0,0,1-.234-.2.206.206,0,0,1,.092-.206.9.9,0,0,1,.25-.075l.039-.008a.258.258,0,0,1,.02-.1.331.331,0,0,1,.131-.162c.027-.015.056-.028.084-.041.074-.044.145-.092.215-.142.165-.127.326-.262.492-.388a3.035,3.035,0,0,1,.441-.294.326.326,0,0,1,.332,0,.538.538,0,0,1,.073-.018,5.956,5.956,0,0,1-.459-.428,2.135,2.135,0,0,1-.226-.29.937.937,0,0,1-.153-.366.711.711,0,0,1,.025-.337.549.549,0,0,1,.064-.124c-.144-.1-.286-.2-.425-.3-.188-.141-.475-.327-.535-.571l-.029-.009-.069-.02.014,0-.03-.009h0l-.06-.017-.046-.013h.006l-.022-.006-.01,0h0l-.017,0,.009,0-.143-.041a.273.273,0,0,1-.177-.141c-.074-.019-.148-.038-.222-.059h0l-.019-.006h0c-.075-.021-.149-.044-.222-.069h-.009l-.192-.041a.556.556,0,0,1-.274-.108.186.186,0,0,1-.029-.243c.13-.169.384-.062.547-.014l-.024-.007c.24.068.485.112.73.156l.1,0c.053,0,.106,0,.16,0,.136,0,.272,0,.407.008.232.008.461.029.691.054a4.669,4.669,0,0,1,1.375.358l-.014-.006.17.074-.008,0,.021.009h0l.034.014-.009,0c.114.048.229.1.345.139.133.047.268.088.4.127l-.045-.012a4.922,4.922,0,0,1,1.307.494c.177.109.34.238.511.355l.125.085.086.045a1.343,1.343,0,0,1,.307.2.527.527,0,0,1,.167.356.45.45,0,0,1,0,.05c.129.049.257.106.38.167a1.828,1.828,0,0,1,.263.154c.077-.006.155-.008.229-.012a5.025,5.025,0,0,1,.515.009l.535.029.17-.034.067-.031a1.763,1.763,0,0,1,.21-.079.518.518,0,0,1,.284-.022.33.33,0,0,1,.247.259.292.292,0,0,1-.039.22.354.354,0,0,1,.065.338.93.93,0,0,1-.155.249,2.482,2.482,0,0,1-.243.27l-.048.046c.211.054.419.115.628.176l.063-.009c.359-.048.723-.075,1.084-.105.346-.029.692-.055,1.038-.081.175-.012.349-.023.523-.023a2.509,2.509,0,0,1,.578.071l.113.028q.191,0,.382.019a.91.91,0,0,1,.845.565.553.553,0,0,1-.067.476.54.54,0,0,1-.562.214.837.837,0,0,1-.187-.069.452.452,0,0,1-.12.143.687.687,0,0,1-.2.111c-.036.014-.074.026-.112.039l-.15.048-.04.012-.116.05a3.62,3.62,0,0,1-.524.16,2.891,2.891,0,0,1-.309.057v0a.576.576,0,0,1-.229,0c-.195.051-.39.1-.587.148l.066-.015-.1.023h0l-.012,0-.053.013.02-.005-.1.024.066-.016a5.589,5.589,0,0,1-.614.114,2.206,2.206,0,0,1-.247.014A2.881,2.881,0,0,1-1195.777,5024.6Z" transform="translate(1250.031 -4868.619)" fill="#040506"/>
    </g>
  </g>
</svg>
