<?xml version="1.0" encoding="utf-8"?>
<!-- Generator: Adobe Illustrator 24.0.0, SVG Export Plug-In . SVG Version: 6.00 Build 0)  -->
<svg version="1.1" id="Ñëîé_1" xmlns="http://www.w3.org/2000/svg" xmlns:xlink="http://www.w3.org/1999/xlink" x="0px" y="0px"
	 viewBox="0 0 478.13 541.61" style="enable-background:new 0 0 478.13 541.61;" xml:space="preserve">
<style type="text/css">
	.st0{fill:#98AF3E;}
	.st1{fill:#6B7F18;}
	.st2{fill:#556B41;}
</style>
<g>
	<polygon class="st0" points="33.59,106.15 161.8,26.25 214.13,34.01 201.56,60.03 	"/>
	<polygon class="st1" points="33.59,106.15 186.45,129.48 201.56,60.03 	"/>
	<polygon class="st0" points="33.59,106.15 209.18,119.29 238.09,81.63 203.68,64.71 	"/>
	<g>
		<path class="st2" d="M247.27,58.5c33.67-7.57,69.32-2.56,100.47,11.93c31.11,14.46,58.05,38.29,74.72,68.41
			c17.54,31.69,23.42,69.02,18.81,104.78c-4.65,36.06-20.02,70.72-44.73,97.51c-24.38,26.44-56.72,44.94-91.39,54.12
			c-17.51,4.64-35.64,6.91-53.75,6.65c-17.28-0.25-35.52-2.23-51.66-8.74c-7.88-3.18-15.52-7.73-20.95-14.4
			c-5.97-7.33-8.32-16.77-6.77-26.07c3.41-20.45,21.18-33.3,39.52-39.91c33.71-12.15,71.82-10.78,105.47,0.78
			c34.44,11.83,64.33,34.62,84.04,65.32c21.08,32.83,30.38,72.07,31.49,110.75c0.27,9.49,0.04,18.99-0.62,28.46
			c-0.08,1.12,1.67,1.12,1.75,0c2.78-39.54-2.13-80.34-18.47-116.71c-7.98-17.75-18.75-34.35-32.3-48.37
			c-12.58-13.01-27.44-23.77-43.57-31.93c-32.17-16.27-69.58-22.4-105.15-16.06c-18.72,3.34-38.98,9.73-52.23,24.11
			c-12.11,13.14-16.83,33.7-5.82,48.97c10.02,13.9,28.06,19.62,44.18,22.54c18.08,3.27,36.63,3.85,54.9,1.9
			c36.44-3.89,71.87-17.69,100.84-40.22c29.32-22.8,50.55-54.31,60.98-89.93c10.35-35.35,10.26-74.01-1.74-108.94
			c-11.59-33.75-34.51-62.38-64.22-82c-29.13-19.24-64.33-29.82-99.32-28.05c-8.39,0.43-16.73,1.57-24.93,3.41
			C245.71,57.06,246.17,58.75,247.27,58.5L247.27,58.5z"/>
	</g>
</g>
</svg>
